<svg xmlns="http://www.w3.org/2000/svg" width="50" height="50" viewBox="0 0 50 50">
  <g id="logo-hechoencba-nav" transform="translate(1335.677 -1179.788)">
    <path id="Trazado_1051" data-name="Trazado 1051" d="M25,0A25,25,0,1,1,0,25,25,25,0,0,1,25,0Z" transform="translate(-1335.677 1179.788)" fill="#fff"/>
    <g id="Grupo_257" data-name="Grupo 257" transform="translate(-1333.812 1181.483)">
      <g id="Grupo_253" data-name="Grupo 253" transform="translate(2.532 2.535)">
        <path id="Trazado_942" data-name="Trazado 942" d="M-1292.213,1230.49c0,3.272.542,5.616,2.882,7.85,7.518,7.175,19.667-.886,15.635-10.757a9.844,9.844,0,0,0-4.8-4.955,9.638,9.638,0,0,0-12.69,4.335,8.974,8.974,0,0,0-1.026,3.527m-7.317-1.789a18.438,18.438,0,0,1,.791-3.112,16.955,16.955,0,0,1,9.286-9.9c6.164-2.715,13.917-1.5,18.34,2.971a21.6,21.6,0,0,1,1.9,2c1.62,2.08,3.506,5.459,3.506,8.2-2.6.216-2.42,4.839,0,5.041a13.941,13.941,0,0,1-2,5.965c-5.29,8.8-16.038,11.207-24.082,5.972-3.912-2.546-7.363-7.272-7.738-11.775,1-.531,1.951-1.052,1.951-2.6,0-1.673-.762-2.135-1.951-2.764" transform="translate(1303.091 -1210.802)" fill="#054b81" fill-rule="evenodd"/>
        <path id="Trazado_943" data-name="Trazado 943" d="M-1302.944,1226.751c.412.2,2.114.34,2.114,2.276a2.019,2.019,0,0,1-1.951,1.951c0,4.289,3.118,8.9,5.4,11.019a19.513,19.513,0,0,0,5.023,3.27c7.8,3.178,16.47,1.011,21.234-5.391,1.682-2.26,3.555-5.838,3.624-8.9a2.033,2.033,0,1,1,0-4.065c-.063-2.836-1.826-6.5-3.484-8.711a17.867,17.867,0,0,0-21.281-5.647,15.626,15.626,0,0,0-4.391,2.763,17.191,17.191,0,0,0-5.46,8.037Zm.813-.488a18.394,18.394,0,0,1,.791-3.112,16.954,16.954,0,0,1,9.286-9.9c6.164-2.714,13.917-1.5,18.34,2.971a21.589,21.589,0,0,1,1.9,2c1.62,2.08,3.506,5.459,3.506,8.2-2.6.216-2.42,4.839,0,5.041a13.944,13.944,0,0,1-2,5.965c-5.29,8.8-16.039,11.207-24.081,5.972-3.912-2.546-7.363-7.272-7.738-11.775,1-.532,1.951-1.052,1.951-2.6,0-1.673-.762-2.135-1.951-2.764" transform="translate(1305.753 -1208.363)" fill="#00a0e3" fill-rule="evenodd"/>
        <path id="Trazado_944" data-name="Trazado 944" d="M-1266.054,1256.842c0,3.273.542,5.617,2.882,7.85,7.518,7.175,19.667-.885,15.635-10.757a9.847,9.847,0,0,0-4.8-4.955,9.638,9.638,0,0,0-12.69,4.335,8.977,8.977,0,0,0-1.026,3.527m.651.813a8.833,8.833,0,0,1,2.56-6.058c2.311-2.286,4.013-2.723,7.2-2.723,3.684,0,8.13,4.1,8.13,8.618a8.9,8.9,0,0,1-15.408,6.3,8.985,8.985,0,0,1-2.478-6.14" transform="translate(1276.993 -1237.153)" fill="#00a0e3" fill-rule="evenodd"/>
        <path id="Trazado_945" data-name="Trazado 945" d="M-1296.4,1199.028c-.945,0-1.8-.761-3.192.27-.835.62-.319.3-1.557.3-2.142,0-1.274,1.188-3.021,1.31-2.081.146-1.577,1.368-2.59,1.73-.746.266-.882.029-1.513.646-.943.925-.3,1.257-1.428,1.739a2.421,2.421,0,0,0-.757.395,2.066,2.066,0,0,0-.843,1.317c-.484,1.77-1.272.68-1.829,2.49-.277.9.189.974-.5,1.656a2.379,2.379,0,0,0-.877,1.282c-.146.761.171,1.378-.212,1.948-.319.476-.683.421-.683,1.908,0,.748.325.843.189,1.346-.217.8-.477.174-.477,1.821a2.349,2.349,0,0,0,.432,1.3c0,.945-.761,1.8.27,3.192.62.835.3.319.3,1.556a2.2,2.2,0,0,0,.545,1.626c.615.674.687.284.765,1.394a2.209,2.209,0,0,0,1.18,1.987c1.155.741.205,1.1,1.2,2.115.922.94,1.222.3,1.753,1.415a5.031,5.031,0,0,0,.385.767,3.084,3.084,0,0,0,1.311.849c1.087.322.676.067,1.229.931.862,1.35,2.14.608,2.92,1.4,1.724,1.748,2.193.392,3.23,1.089.476.32.421.683,1.908.683.71,0,.921-.332,1.369-.212.739.2.034.5,1.943.5.674,0,.779-.4,1.364-.477.493-.067,1.474.894,2.98-.225,1.247-.926,1.7.332,3.169-.855.783-.632,0-.628,1.4-.758,2.044-.19,1.677-1.365,2.58-1.74.561-.233.982-.152,1.527-.632.569-.5.495-.832.834-1.326.153-.223-.033-.036.208-.224.38-.3,1.559-.438,1.99-1.9.3-1.028.069-.687.91-1.25,1.5-1.005.565-2.055,1.42-2.9,1.748-1.724.392-2.193,1.089-3.23.32-.476.683-.421.683-1.908,0-.811-.39-.9-.173-1.461.227-.589.461-.372.461-1.706,0-.908-.3-.873-.453-1.416-.171-.6.919-1.5-.249-3.072-.625-.842-.295-.317-.3-1.558,0-2.03-1.195-1.354-1.311-3.019-.145-2.077-1.338-1.554-1.728-2.591-.912-2.424-.521-1.346-1.977-2.343-.223-.152-.035.032-.224-.208a2.175,2.175,0,0,1-.2-.375,5.014,5.014,0,0,0-.385-.767,3.084,3.084,0,0,0-1.311-.849c-1.086-.322-.676-.067-1.229-.931-.862-1.35-2.14-.607-2.92-1.4-1.724-1.748-2.193-.392-3.23-1.089-.476-.32-.421-.683-1.908-.683-.748,0-.843.325-1.346.189-.8-.216-.173-.477-1.821-.477a2.35,2.35,0,0,0-1.3.432m-.288,1.008c.6,0,1.077-.576,1.727-.576.94,0,.933.576,1.728.576,1.757,0,.686-.976,2.881.434.77.495.7.142,1.582.142,1.131,0,1.229.89,2.065,1.247a7.727,7.727,0,0,0,1.327.256,1.361,1.361,0,0,1,.881.7c.922,1.37.965.621,2.065,1.246.789.448.462,1.411,1.292,1.875.924.516,1.283.173,1.619,1.693.3,1.378.974.933,1.5,1.671.669.943-.1,1.662.838,2.473,1.118.972.653.963.653,2.226,0,1.168.864,1.011.864,2.016,0,1.056-.288.881-.288,1.727,0,.5.576.885.576,1.584,0,.764-.576.963-.576,1.728,0,1.166.288.692.288,1.439s-.463,1-.743,1.419c-.458.681-.122.958-.122,1.748,0,.968-1.047,1.223-1.324,1.988-.456,1.258.363,1.2-.98,2.188-1.266.933-.53,1.071-1.225,2.087-.553.808-1.377.345-1.845,1.323-.587,1.228-.332,1.19-1.766,1.545-1.14.282-.878,1.021-1.66,1.507-1.082.673-1.525-.191-2.427.885-.829.99-1.064.572-2.307.572-1.011,0-.861.864-1.871.864-1.056,0-.882-.288-1.728-.288-.5,0-.885.576-1.584.576-.94,0-.933-.576-1.728-.576-1.709,0-.716.965-2.88-.433-.845-.546-.8-.143-1.727-.143-.907,0-1.233-1-2.005-1.305-.746-.3-1.4.13-2.068-.812-1.192-1.673-1.091-.623-2.209-1.39-.75-.514-.393-1.4-1.293-1.874-1.227-.653-1.167-.2-1.553-1.758-.3-1.231-1.085-.891-1.529-1.639-.568-.958.119-1.6-.783-2.385-1.118-.971-.653-.963-.653-2.226,0-1.168-.864-1.011-.864-2.015,0-1.056.288-.881.288-1.728,0-.5-.576-.885-.576-1.584,0-.94.576-.932.576-1.727,0-1.756-.975-.687.433-2.88.546-.85.143-.8.143-1.727s1.006-1.2,1.274-2.037c.369-1.15-.2-1.386,1.02-2.147,1.241-.772.59-1.191,1.212-2.1.512-.747,1.441-.4,1.867-1.3.582-1.224.339-1.194,1.766-1.545,1.158-.284.861-1.065,1.64-1.528.988-.587,1.481.173,2.427-.884.857-.957,1.109-.552,2.327-.552.759,0,1.005-.864,1.871-.864,1.019,0,.92.288,1.584.288" transform="translate(1315.689 -1198.596)" fill="#054b81" fill-rule="evenodd"/>
        <path id="Trazado_946" data-name="Trazado 946" d="M-1303.339,1287.4a.853.853,0,0,1,.853.853.853.853,0,0,1-.853.853.853.853,0,0,1-.853-.853.853.853,0,0,1,.853-.853" transform="translate(1306.726 -1267.827)" fill="#00a0e3" fill-rule="evenodd"/>
        <path id="Trazado_947" data-name="Trazado 947" d="M-1147.574,1287.4a.853.853,0,0,1,.853.853.853.853,0,0,1-.853.853.853.853,0,0,1-.853-.853.853.853,0,0,1,.853-.853" transform="translate(1185.289 -1267.827)" fill="#00a0e3" fill-rule="evenodd"/>
        <path id="Trazado_948" data-name="Trazado 948" d="M-1259.029,1232.565l-1.481,2.176,1.364-.7c.123-.063.189-.117.2-.162a.409.409,0,0,0-.066-.222l-.088-.173.432-.222.688,1.342-.432.222-.055-.109c-.055-.107-.1-.168-.146-.185s-.124.006-.242.067l-2.36,1.209-.536-1.047,1.579-2.307-1.493.765c-.118.061-.184.113-.2.158a.374.374,0,0,0,.063.227l.069.136-.432.221-.69-1.347.432-.221.077.149c.055.108.105.17.15.187s.126-.005.243-.065l1.666-.853c.116-.059.18-.112.194-.157a.377.377,0,0,0-.064-.232l-.077-.149.432-.221Zm-1.689-2.773-.882.925-.393-.374a2.206,2.206,0,0,0,.187-.358.694.694,0,0,0,.051-.261.543.543,0,0,0-.076-.264,1.79,1.79,0,0,0-.3-.343l-.074-.07-.318-.3-.649.68.1.091a.4.4,0,0,0,.314.144.64.64,0,0,0,.344-.225l.021-.022.311.3-1.079,1.132-.311-.3a.883.883,0,0,0,.253-.4.39.39,0,0,0-.158-.3l-.1-.095-.737.773.44.419a1.86,1.86,0,0,0,.381.3.39.39,0,0,0,.249.037,1.017,1.017,0,0,0,.3-.13,2.31,2.31,0,0,0,.351-.279l.407.388-.977,1.025-2.619-2.5.335-.352.125.119a.42.42,0,0,0,.19.126c.044.006.11-.038.2-.129l.018-.018,1.292-1.354c.092-.1.136-.167.133-.212s-.048-.11-.136-.193l-.121-.116.335-.351Zm-10.013-3.756a1.72,1.72,0,0,1,.874-1.14,2.086,2.086,0,0,1,1.539-.066,2.073,2.073,0,0,1,1.269.864,1.722,1.722,0,0,1,.143,1.429,1.71,1.71,0,0,1-.873,1.137,2.1,2.1,0,0,1-1.541.063,2.07,2.07,0,0,1-1.267-.863,1.718,1.718,0,0,1-.144-1.425m2.272-.7a.532.532,0,0,0-.57.156,2.257,2.257,0,0,0-.421.9,2.327,2.327,0,0,0-.12,1,.525.525,0,0,0,.4.432.529.529,0,0,0,.571-.155,2.267,2.267,0,0,0,.42-.9,2.334,2.334,0,0,0,.12-1,.526.526,0,0,0-.4-.435m-5.539-.906.037.484-.057,0a.3.3,0,0,0-.2.064.392.392,0,0,0-.029.246l.047.617.948-.072-.047-.617a.386.386,0,0,0-.067-.239.3.3,0,0,0-.207-.033l-.055,0-.037-.484,1.9-.144.037.484-.173.013a.379.379,0,0,0-.226.063q-.047.05-.032.249l.142,1.867c.01.134.033.214.07.242a.372.372,0,0,0,.233.03l.173-.013.037.484-1.9.144-.037-.484.054,0a.291.291,0,0,0,.2-.066.379.379,0,0,0,.032-.247l-.058-.766-.948.072.058.766a.39.39,0,0,0,.067.24.289.289,0,0,0,.2.035l.057,0,.037.484-1.9.144-.037-.484.172-.013a.424.424,0,0,0,.224-.058c.034-.031.047-.116.036-.258l-.142-1.867c-.01-.134-.033-.214-.069-.242a.389.389,0,0,0-.235-.027l-.172.013-.036-.484Zm-2.449,2.5a1.411,1.411,0,0,1,.04,1.146,1.709,1.709,0,0,1-.918.822,1.869,1.869,0,0,1-1.44.135,1.8,1.8,0,0,1-.989-1.028,1.79,1.79,0,0,1-.093-1.41,1.788,1.788,0,0,1,1-1,2.17,2.17,0,0,1,.5-.16,1.773,1.773,0,0,1,.492-.024v-.208l.507-.229.582,1.286-.559.253a1.588,1.588,0,0,0-.546-.541.61.61,0,0,0-.544,0,.556.556,0,0,0-.354.5,2.178,2.178,0,0,0,.255.963,2.2,2.2,0,0,0,.569.847.581.581,0,0,0,.629.053.726.726,0,0,0,.415-.461,1.075,1.075,0,0,0-.049-.714Zm-5.36.439.882.925-.393.375a2.166,2.166,0,0,0-.349-.2.685.685,0,0,0-.258-.063.542.542,0,0,0-.268.063,1.777,1.777,0,0,0-.356.283l-.074.071-.318.3.649.681.1-.091a.406.406,0,0,0,.159-.306.64.64,0,0,0-.208-.354l-.02-.022.311-.3,1.079,1.132-.311.3a.88.88,0,0,0-.389-.272.388.388,0,0,0-.306.144l-.1.094.737.773.44-.419a1.86,1.86,0,0,0,.323-.366.39.39,0,0,0,.049-.247,1.02,1.02,0,0,0-.115-.3,2.324,2.324,0,0,0-.262-.364l.407-.388.977,1.025-2.619,2.5-.335-.351.125-.119a.419.419,0,0,0,.135-.183c.008-.044-.033-.112-.12-.2l-.018-.019-1.292-1.355c-.091-.1-.16-.143-.206-.143s-.112.043-.2.127l-.121.116-.335-.351Zm-4.454,5.527.432.221-.026.051a.292.292,0,0,0-.049.2c.014.043.079.094.194.153l.55.282.433-.846-.55-.282a.385.385,0,0,0-.238-.068c-.043.014-.089.067-.136.159l-.025.048-.432-.221.867-1.692.432.221-.079.155a.379.379,0,0,0-.064.226q.018.066.2.157l1.667.854c.119.061.2.083.243.067s.093-.077.147-.183l.079-.155.432.221-.867,1.693-.432-.222.025-.048a.292.292,0,0,0,.047-.2c-.014-.045-.078-.1-.195-.156l-.684-.351-.433.846.684.35a.389.389,0,0,0,.24.068c.044-.014.09-.066.136-.156l.026-.051.432.222-.867,1.692-.432-.221.078-.153a.423.423,0,0,0,.067-.221c-.009-.045-.075-.1-.2-.165l-1.666-.854c-.12-.061-.2-.083-.242-.068s-.091.078-.146.186l-.078.153-.432-.222Z" transform="translate(1293.422 -1218.601)" fill="#fefefe"/>
        <path id="Trazado_949" data-name="Trazado 949" d="M-1254.562,1323.478l-.389-.291.093-.123a.749.749,0,0,0,.126-.2.081.081,0,0,0-.039-.083.375.375,0,0,0-.065-.042.7.7,0,0,0-.067-.03l-.368-.123-.554.739.2.282a.922.922,0,0,0,.071.1.347.347,0,0,0,.056.055c.025.018.055.016.094-.007a.51.51,0,0,0,.126-.127l.1-.136.388.291-.92,1.227-.389-.291.076-.1a.307.307,0,0,0,.065-.225.67.67,0,0,0-.124-.285l-1.532-2.277.744-.992,2.547.906a.743.743,0,0,0,.337.065.349.349,0,0,0,.173-.141l.108-.144.388.291Zm-1.2-1.06-1.018-.374.655.857Zm-2.978,2.308.153-.109a.58.58,0,0,0,.259-.322.458.458,0,0,0-.1-.362.441.441,0,0,0-.294-.213.581.581,0,0,0-.376.141l-.168.119Zm.89,1.255.179-.127a.638.638,0,0,0,.291-.365.578.578,0,0,0-.137-.427.522.522,0,0,0-.349-.246.65.65,0,0,0-.438.152l-.176.125Zm-1.011,1.305-.281-.4.141-.1a.417.417,0,0,0,.159-.162c.014-.042-.016-.115-.089-.218l-.015-.021-1.083-1.528c-.077-.109-.138-.166-.183-.172a.38.38,0,0,0-.216.1l-.137.1-.281-.4,1.685-1.194a1.917,1.917,0,0,1,.916-.41.668.668,0,0,1,.609.318.717.717,0,0,1,.135.506,1.152,1.152,0,0,1-.246.564,1.334,1.334,0,0,1,.723-.13.75.75,0,0,1,.5.332.784.784,0,0,1,.131.793,2.336,2.336,0,0,1-.834.858Zm-4.527-.026a1.72,1.72,0,0,1,.017-1.437,2.087,2.087,0,0,1,1.193-.975,2.073,2.073,0,0,1,1.533-.068,1.723,1.723,0,0,1,.971,1.059,1.71,1.71,0,0,1-.018,1.433,2.1,2.1,0,0,1-1.2.974,2.07,2.07,0,0,1-1.531.068,1.718,1.718,0,0,1-.969-1.054m1.4-1.925a.532.532,0,0,0-.363.466,2.262,2.262,0,0,0,.2.974,2.324,2.324,0,0,0,.5.875.526.526,0,0,0,.578.107.53.53,0,0,0,.364-.466,2.269,2.269,0,0,0-.2-.975,2.329,2.329,0,0,0-.5-.872.525.525,0,0,0-.579-.109m-3.672,3.278.27-.01a.568.568,0,0,0,.524-.3,1.977,1.977,0,0,0,.129-.941,1.988,1.988,0,0,0-.195-.931.57.57,0,0,0-.544-.261l-.27.01Zm.167-2.936a2.325,2.325,0,0,1,1.541.367,1.6,1.6,0,0,1,.544,1.272,1.6,1.6,0,0,1-.453,1.311,2.321,2.321,0,0,1-1.51.477l-1.864.066-.017-.485.172-.006a.418.418,0,0,0,.223-.048c.035-.028.05-.1.046-.231v-.026l-.066-1.87c0-.133-.025-.215-.059-.244a.378.378,0,0,0-.233-.038l-.168.006-.017-.485Zm-4.279.824.29.08a.736.736,0,0,0,.456.021.4.4,0,0,0,.214-.292.47.47,0,0,0-.016-.384.636.636,0,0,0-.374-.213l-.326-.091Zm-1.413.887.5-1.8c.036-.129.041-.212.017-.25a.38.38,0,0,0-.212-.107l-.166-.046.129-.466,2.276.632a1.659,1.659,0,0,1,.843.454.726.726,0,0,1,.125.7.674.674,0,0,1-.312.418,1.007,1.007,0,0,1-.589.117.657.657,0,0,1,.4.332,1.556,1.556,0,0,1-.09.787.728.728,0,0,0-.039.254.106.106,0,0,0,.081.1.112.112,0,0,0,.123-.057.8.8,0,0,0,.1-.246c0-.011.007-.03.013-.056s.01-.045.014-.058l.335.093c0,.015-.009.036-.016.067s-.012.052-.016.067a1.01,1.01,0,0,1-.376.617.823.823,0,0,1-.671.037.989.989,0,0,1-.6-.369.8.8,0,0,1-.041-.653l.077-.277a.683.683,0,0,0,.029-.445.542.542,0,0,0-.339-.191l-.3-.082-.205.739a.377.377,0,0,0-.017.253.367.367,0,0,0,.208.107l.188.052-.13.468-1.99-.553.13-.468.166.046a.376.376,0,0,0,.236.016q.062-.032.116-.225m-1.234-4.246,1.053-.207a1.154,1.154,0,0,1,.3-.031.364.364,0,0,1,.186.067.272.272,0,0,1,.118.186.28.28,0,0,1-.053.214.254.254,0,0,1-.15.1.668.668,0,0,1-.253,0l-.953-.153Zm-2.365.849a1.72,1.72,0,0,1,1.207-.78,2.085,2.085,0,0,1,1.471.456,2.074,2.074,0,0,1,.9,1.241,1.721,1.721,0,0,1-.346,1.394,1.709,1.709,0,0,1-1.2.777,2.1,2.1,0,0,1-1.473-.459,2.069,2.069,0,0,1-.9-1.239,1.716,1.716,0,0,1,.344-1.39m2.377.1a.531.531,0,0,0-.589-.045,2.257,2.257,0,0,0-.7.707,2.328,2.328,0,0,0-.451.9.526.526,0,0,0,.23.542.529.529,0,0,0,.59.046,2.271,2.271,0,0,0,.7-.708,2.326,2.326,0,0,0,.449-.9.525.525,0,0,0-.229-.543m-2.6.174a1.407,1.407,0,0,1-1.089.357,1.706,1.706,0,0,1-1.044-.653,1.868,1.868,0,0,1-.529-1.345,1.8,1.8,0,0,1,.713-1.236,1.79,1.79,0,0,1,1.328-.481,1.788,1.788,0,0,1,1.238.686,2.185,2.185,0,0,1,.291.432,1.8,1.8,0,0,1,.16.466l.2-.057.361.423-1.074.916-.4-.466a1.588,1.588,0,0,0,.368-.674.612.612,0,0,0-.152-.523.557.557,0,0,0-.574-.2,2.181,2.181,0,0,0-.854.512,2.192,2.192,0,0,0-.655.782.581.581,0,0,0,.124.619.725.725,0,0,0,.558.271,1.078,1.078,0,0,0,.673-.245Z" transform="translate(1286.056 -1293.896)" fill="#fefefe"/>
        <path id="Trazado_950" data-name="Trazado 950" d="M-1238.258,1259.082a30.877,30.877,0,0,1,4.312.151,30.829,30.829,0,0,1-4.312.151,30.826,30.826,0,0,1-4.312-.151,30.872,30.872,0,0,1,4.312-.151" transform="translate(1258.684 -1245.752)" fill="#00a0e3" fill-rule="evenodd"/>
        <path id="Trazado_951" data-name="Trazado 951" d="M-1240.632,1263.545a47.863,47.863,0,0,1,5.371.151,47.828,47.828,0,0,1-5.371.151,47.832,47.832,0,0,1-5.371-.151,47.867,47.867,0,0,1,5.371-.151" transform="translate(1261.361 -1249.231)" fill="#00a0e3" fill-rule="evenodd"/>
        <path id="Trazado_952" data-name="Trazado 952" d="M-1243.538,1267.321c3.447,0,6.242.068,6.242.151s-2.795.151-6.242.151-6.241-.068-6.241-.151,2.795-.151,6.242-.151" transform="translate(1264.305 -1252.175)" fill="#00a0e3" fill-rule="evenodd"/>
        <path id="Trazado_953" data-name="Trazado 953" d="M-1247.436,1271.784c3.948,0,7.149.068,7.149.151s-3.2.151-7.149.151-7.149-.068-7.149-.151,3.2-.151,7.149-.151" transform="translate(1268.051 -1255.655)" fill="#00a0e3" fill-rule="evenodd"/>
        <path id="Trazado_954" data-name="Trazado 954" d="M-1250.15,1277.276c4.345,0,7.868.068,7.868.151s-3.523.151-7.868.151-7.868-.068-7.868-.151,3.523-.151,7.868-.151" transform="translate(1270.728 -1259.936)" fill="#00a0e3" fill-rule="evenodd"/>
        <path id="Trazado_955" data-name="Trazado 955" d="M-1250.84,1283.112c4.534,0,8.209.068,8.209.151s-3.675.151-8.209.151-8.208-.068-8.208-.151,3.675-.151,8.208-.151" transform="translate(1271.531 -1264.486)" fill="#00a0e3" fill-rule="evenodd"/>
        <path id="Trazado_956" data-name="Trazado 956" d="M-1252.826,1288.6c4.763,0,8.625.068,8.624.151s-3.861.151-8.624.151-8.625-.068-8.625-.151,3.861-.151,8.625-.151" transform="translate(1273.404 -1268.768)" fill="#00a0e3" fill-rule="evenodd"/>
        <path id="Trazado_957" data-name="Trazado 957" d="M-1237.82,1323.746a30.864,30.864,0,0,0,4.312-.151,30.85,30.85,0,0,0-4.312-.151,30.847,30.847,0,0,0-4.312.151,30.862,30.862,0,0,0,4.312.151" transform="translate(1258.343 -1295.929)" fill="#00a0e3" fill-rule="evenodd"/>
        <path id="Trazado_958" data-name="Trazado 958" d="M-1240.194,1319.283a47.818,47.818,0,0,0,5.372-.151,47.853,47.853,0,0,0-5.372-.151,47.849,47.849,0,0,0-5.371.151,47.814,47.814,0,0,0,5.371.151" transform="translate(1261.019 -1292.45)" fill="#00a0e3" fill-rule="evenodd"/>
        <path id="Trazado_959" data-name="Trazado 959" d="M-1243.1,1315.506c3.447,0,6.241-.067,6.241-.151s-2.794-.151-6.241-.151-6.241.068-6.241.151,2.794.151,6.241.151" transform="translate(1263.963 -1289.505)" fill="#00a0e3" fill-rule="evenodd"/>
        <path id="Trazado_960" data-name="Trazado 960" d="M-1247,1311.044c3.948,0,7.15-.068,7.15-.151s-3.2-.151-7.15-.151-7.149.068-7.149.151,3.2.151,7.149.151" transform="translate(1267.71 -1286.027)" fill="#00a0e3" fill-rule="evenodd"/>
        <path id="Trazado_961" data-name="Trazado 961" d="M-1249.712,1305.552c4.345,0,7.868-.068,7.868-.151s-3.523-.151-7.868-.151-7.868.068-7.868.151,3.523.151,7.868.151" transform="translate(1270.386 -1281.744)" fill="#00a0e3" fill-rule="evenodd"/>
        <path id="Trazado_962" data-name="Trazado 962" d="M-1250.4,1299.715c4.533,0,8.208-.068,8.208-.151s-3.675-.151-8.208-.151-8.208.068-8.208.151,3.675.151,8.208.151" transform="translate(1271.189 -1277.195)" fill="#00a0e3" fill-rule="evenodd"/>
        <path id="Trazado_963" data-name="Trazado 963" d="M-1252.387,1294.224c4.763,0,8.625-.068,8.625-.151s-3.861-.151-8.625-.151-8.624.068-8.624.151,3.861.151,8.624.151" transform="translate(1273.062 -1272.913)" fill="#00a0e3" fill-rule="evenodd"/>
        <path id="Trazado_964" data-name="Trazado 964" d="M-1231.615,1254.694a8.309,8.309,0,0,1,2.225.151,8.318,8.318,0,0,1-2.225.151,8.318,8.318,0,0,1-2.225-.151,8.308,8.308,0,0,1,2.225-.151" transform="translate(1251.878 -1242.331)" fill="#00a0e3" fill-rule="evenodd"/>
        <path id="Trazado_965" data-name="Trazado 965" d="M-1231.615,1327.842a8.327,8.327,0,0,1,2.225.151,8.312,8.312,0,0,1-2.225.151,8.312,8.312,0,0,1-2.225-.151,8.326,8.326,0,0,1,2.225-.151" transform="translate(1251.878 -1299.358)" fill="#00a0e3" fill-rule="evenodd"/>
        <path id="Trazado_966" data-name="Trazado 966" d="M-1238.4,1259.961l.022.18a.3.3,0,0,1-.062.223l-.3.377a.3.3,0,0,1-.114.089l-.223.1a.3.3,0,0,0-.12.1l-.168.23a.3.3,0,0,0-.042.081l-.624,1.841a.3.3,0,0,0-.016.105l.05,1.727a.3.3,0,0,0,.164.26l.709.36a.3.3,0,0,1,.154.191l.064.241a.3.3,0,0,0,.291.224.3.3,0,0,1,.3.333l-.158,1.472a.3.3,0,0,1-.049.135l-.068.1a.3.3,0,0,0-.051.176l.118,3.878a.3.3,0,0,0,.3.292l2.8-.02a.3.3,0,0,0,.3-.295l.02-.917a.3.3,0,0,1,.286-.294l.564-.028a.3.3,0,0,0,.236-.134l2.132-3.2a.3.3,0,0,0-.046-.388l-.222-.205a.3.3,0,0,1-.1-.2l-.039-.595a.3.3,0,0,0-.09-.2l-.248-.243a.3.3,0,0,1-.09-.2l-.058-1.026.2-.13.364-1.975a.3.3,0,0,0-.026-.187l-.357-.73a.3.3,0,0,0-.258-.169l-.315-.014a.3.3,0,0,1-.286-.269l-.038-.356a.3.3,0,0,0-.042-.124l-.284-.467a.3.3,0,0,0-.2-.139l-1.26-.235-.04-.154-.9.049a.3.3,0,0,1-.158-.035l-.585-.313a.3.3,0,0,0-.191-.031l-1,.167a.3.3,0,0,0-.249.334" transform="translate(1256.715 -1246.044)" fill="#00a0e3"/>
      </g>
      <g id="Grupo_254" data-name="Grupo 254">
        <path id="Trazado_967" data-name="Trazado 967" d="M-1310.3,1344.953l.5-.315.088.139-1.355.861-.267-.419a.457.457,0,0,1,.114-.664l.094-.06a.458.458,0,0,1,.652.177Zm-.741.471.622-.4-.172-.27a.312.312,0,0,0-.462-.118l-.073.046a.311.311,0,0,0-.087.467Z" transform="translate(1314.901 -1309.749)" fill="#054b81"/>
        <path id="Trazado_968" data-name="Trazado 968" d="M-1314.5,1338.3a.456.456,0,0,1,.151-.653l.084-.046a.427.427,0,0,1,.545.1l.387-.605.089.162-.378.58.16.288.535-.3.08.144-1.4.776Zm.292.236.623-.345-.162-.294a.31.31,0,0,0-.45-.148l-.061.034a.309.309,0,0,0-.112.459Z" transform="translate(1317.352 -1304.036)" fill="#054b81"/>
        <path id="Trazado_969" data-name="Trazado 969" d="M-1317.49,1333.172a.518.518,0,0,1,.225-.737l.558-.263a.518.518,0,0,1,.712.295.519.519,0,0,1-.225.738l-.558.263A.518.518,0,0,1-1317.49,1333.172Zm1.188-.111a.367.367,0,0,0,.175-.532.367.367,0,0,0-.522-.2l-.534.252a.367.367,0,0,0-.175.532.367.367,0,0,0,.522.2Z" transform="translate(1319.678 -1300.157)" fill="#054b81"/>
        <path id="Trazado_970" data-name="Trazado 970" d="M-1319.012,1326.036a1.11,1.11,0,0,1,.252.387.525.525,0,0,1-.28.726l-.542.215a.541.541,0,0,1-.726-.36,1.038,1.038,0,0,1-.075-.414l.143-.016a1.1,1.1,0,0,0,.069.361.394.394,0,0,0,.54.271l.519-.206a.373.373,0,0,0,.2-.539.948.948,0,0,0-.138-.241l-.547.217-.058-.147Z" transform="translate(1321.881 -1295.416)" fill="#054b81"/>
        <path id="Trazado_971" data-name="Trazado 971" d="M-1322.11,1321.218a.455.455,0,0,1,.27-.614l.091-.03a.428.428,0,0,1,.517.2l.493-.522.058.176-.48.5.1.313.581-.191.051.156-1.525.5Zm.242.286.677-.222-.1-.319a.31.31,0,0,0-.415-.229l-.067.022a.309.309,0,0,0-.2.43Z" transform="translate(1323.251 -1290.905)" fill="#054b81"/>
        <path id="Trazado_972" data-name="Trazado 972" d="M-1322.462,1314.031l-.372.239.17.652.441.027.044.169-1.688-.11-.059-.225,1.419-.921Zm-.352.883-.147-.565-.795.51Z" transform="translate(1324.642 -1285.925)" fill="#054b81"/>
        <path id="Trazado_973" data-name="Trazado 973" d="M-1325.784,1306.658l1.2.3.021.114-1.012.7,1.3-.238.029.159-1.579.288-.035-.195,1.064-.736-1.255-.315-.036-.195,1.579-.288.029.158Z" transform="translate(1326.328 -1279.999)" fill="#054b81"/>
        <path id="Trazado_974" data-name="Trazado 974" d="M-1325.1,1299.545l-.4.181.071.67.432.093.018.173-1.652-.361-.024-.231,1.541-.7Zm-.48.821-.061-.58-.862.385Z" transform="translate(1326.775 -1274.628)" fill="#054b81"/>
        <path id="Trazado_975" data-name="Trazado 975" d="M-1327.167,1292.257l-.009-.492a.524.524,0,0,1,.492-.577l.6-.011a.506.506,0,0,1,.513.559l.009.492Zm.133-.481.006.314,1.323-.024-.006-.314c0-.261-.146-.415-.382-.41l-.574.01A.374.374,0,0,0-1327.035,1291.776Z" transform="translate(1327.176 -1268.24)" fill="#054b81"/>
        <path id="Trazado_976" data-name="Trazado 976" d="M-1327.17,1286.145l.037-.891.147.006-.03.725.573.024.029-.7.147.006-.029.7.59.025.031-.751.147.006-.038.917Z" transform="translate(1327.171 -1263.621)" fill="#054b81"/>
        <path id="Trazado_977" data-name="Trazado 977" d="M-1325.4,1280.965l.067-.7.148.014-.082.865-1.6-.152.016-.164Z" transform="translate(1326.933 -1259.731)" fill="#054b81"/>
        <path id="Trazado_978" data-name="Trazado 978" d="M-1324.056,1271.718a1.106,1.106,0,0,1,.011.462.525.525,0,0,1-.619.471l-.574-.1a.541.541,0,0,1-.429-.687,1.033,1.033,0,0,1,.153-.392l.13.062a1.114,1.114,0,0,0-.13.344.4.4,0,0,0,.318.513l.55.1a.373.373,0,0,0,.455-.353.956.956,0,0,0,.009-.278l-.58-.1.027-.155Z" transform="translate(1326.01 -1252.876)" fill="#054b81"/>
        <path id="Trazado_979" data-name="Trazado 979" d="M-1324.436,1265.669a.518.518,0,0,1,.638-.433l.6.145a.518.518,0,0,1,.37.676.518.518,0,0,1-.638.434l-.6-.145A.518.518,0,0,1-1324.436,1265.669Zm.995.659a.367.367,0,0,0,.47-.305.367.367,0,0,0-.279-.486l-.574-.138a.367.367,0,0,0-.47.3.367.367,0,0,0,.279.486Z" transform="translate(1325.057 -1248.002)" fill="#054b81"/>
        <path id="Trazado_980" data-name="Trazado 980" d="M-1321.57,1260.433l-1.534-.476.151-.486a.391.391,0,0,1,.53-.307.357.357,0,0,1,.268.338.405.405,0,0,1,.458-.181l.009,0a.443.443,0,0,1,.271.614Zm-.9-1.111a.261.261,0,0,0-.357.206l-.1.314.54.168.1-.323A.26.26,0,0,0-1322.466,1259.322Zm.31.417-.1.31.6.185.1-.319a.312.312,0,0,0-.2-.439C-1321.945,1259.415-1322.091,1259.53-1322.156,1259.738Z" transform="translate(1324.001 -1243.261)" fill="#054b81"/>
        <path id="Trazado_981" data-name="Trazado 981" d="M-1319.605,1256.739l-.056.155-1.512-.542.056-.155Z" transform="translate(1322.496 -1240.968)" fill="#054b81"/>
        <path id="Trazado_982" data-name="Trazado 982" d="M-1320.18,1251.269l.335-.826.136.055-.273.672.532.216.264-.651.136.055-.264.651.547.222.283-.7.136.055-.345.85Z" transform="translate(1321.722 -1236.482)" fill="#054b81"/>
        <path id="Trazado_983" data-name="Trazado 983" d="M-1317.74,1245.7a.455.455,0,0,1,.619-.259l.087.041a.428.428,0,0,1,.238.5l.718-.039-.079.167-.692.031-.141.3.552.262-.07.149-1.45-.688Zm-.021.374.643.305.144-.3a.31.31,0,0,0-.142-.452l-.063-.03a.309.309,0,0,0-.438.177Z" transform="translate(1319.991 -1232.546)" fill="#054b81"/>
        <path id="Trazado_984" data-name="Trazado 984" d="M-1313.444,1239.249l-1.152-.646.081-.144,1.4.786-.086.154-1.538.044,1.151.646-.081.144-1.4-.786.086-.154Z" transform="translate(1317.738 -1227.139)" fill="#054b81"/>
        <path id="Trazado_985" data-name="Trazado 985" d="M-1310.571,1233.509a.518.518,0,0,1,.746-.193l.516.338a.518.518,0,0,1,.12.761.518.518,0,0,1-.746.194l-.515-.338A.518.518,0,0,1-1310.571,1233.509Zm.715.955a.367.367,0,0,0,.545-.129.367.367,0,0,0-.1-.551l-.494-.324a.367.367,0,0,0-.545.129.367.367,0,0,0,.1.551Z" transform="translate(1314.319 -1223.06)" fill="#054b81"/>
        <path id="Trazado_986" data-name="Trazado 986" d="M-1305.883,1226.39l.306-.385a.523.523,0,0,1,.747-.132l.469.373a.5.5,0,0,1,.04.757l-.306.385Zm.408-.287-.2.246,1.035.823.2-.246a.364.364,0,0,0-.034-.559l-.449-.357A.374.374,0,0,0-1305.475,1226.1Z" transform="translate(1310.576 -1217.245)" fill="#054b81"/>
        <path id="Trazado_987" data-name="Trazado 987" d="M-1301.585,1220.95l.6-.658.108.1-.49.536.424.387.474-.518.108.1-.474.518.436.4.508-.555.108.1-.62.678Z" transform="translate(1307.225 -1212.975)" fill="#054b81"/>
        <path id="Trazado_988" data-name="Trazado 988" d="M-1293.542,1215.7a.994.994,0,0,1-.237.329.525.525,0,0,1-.758,0l-.413-.433a.523.523,0,0,1,.033-.77.929.929,0,0,1,.318-.2l.075.128a.953.953,0,0,0-.286.181.373.373,0,0,0-.011.556l.4.415a.371.371,0,0,0,.555-.006,1.085,1.085,0,0,0,.213-.286Z" transform="translate(1302.171 -1208.56)" fill="#054b81"/>
        <path id="Trazado_989" data-name="Trazado 989" d="M-1291.134,1209.777l.047-.491.157.019-.089.488Zm.257.041a.518.518,0,0,1,.77.027l.4.471a.518.518,0,0,1-.1.764.518.518,0,0,1-.771-.027l-.4-.471A.518.518,0,0,1-1290.877,1209.817Zm.414,1.119a.367.367,0,0,0,.559.031.367.367,0,0,0,.062-.557l-.381-.451a.367.367,0,0,0-.559-.032.367.367,0,0,0-.062.557Z" transform="translate(1299.077 -1204.395)" fill="#054b81"/>
        <path id="Trazado_990" data-name="Trazado 990" d="M-1285.945,1207.094a.455.455,0,0,1,.668.062l.057.077a.428.428,0,0,1-.025.553l.652.3-.149.11-.625-.3-.265.2.365.491-.133.1-.957-1.289Zm-.195.32.425.572.269-.2a.31.31,0,0,0,.087-.466l-.042-.056a.309.309,0,0,0-.47-.05Z" transform="translate(1295.353 -1202.596)" fill="#054b81"/>
        <path id="Trazado_991" data-name="Trazado 991" d="M-1281.012,1203.707l.413-.267a.523.523,0,0,1,.749.115l.325.5a.506.506,0,0,1-.2.73l-.413.266Zm.479-.141-.264.171.717,1.112.264-.17a.365.365,0,0,0,.148-.541l-.311-.482A.374.374,0,0,0-1280.533,1203.566Z" transform="translate(1291.186 -1199.756)" fill="#054b81"/>
        <path id="Trazado_992" data-name="Trazado 992" d="M-1274.391,1199.855a.518.518,0,0,1,.75.176l.3.539a.518.518,0,0,1-.247.73.518.518,0,0,1-.751-.175l-.3-.539A.519.519,0,0,1-1274.391,1199.855Zm.189,1.178a.367.367,0,0,0,.543.139.367.367,0,0,0,.168-.534l-.287-.516a.367.367,0,0,0-.542-.14.367.367,0,0,0-.168.535Z" transform="translate(1286.272 -1196.974)" fill="#054b81"/>
        <path id="Trazado_993" data-name="Trazado 993" d="M-1268.487,1198.566l-.689-1.45.46-.218a.39.39,0,0,1,.585.182.356.356,0,0,1-.067.426.4.4,0,0,1,.443.215l0,.009a.444.444,0,0,1-.268.616Zm.211-1.412a.261.261,0,0,0-.393-.123l-.3.141.242.511.306-.145A.261.261,0,0,0-1268.276,1197.154Zm-.1.511-.294.139.268.564.3-.144a.312.312,0,0,0,.191-.441C-1267.992,1197.6-1268.176,1197.571-1268.373,1197.664Z" transform="translate(1281.958 -1194.688)" fill="#054b81"/>
        <path id="Trazado_994" data-name="Trazado 994" d="M-1260.734,1195.8l-.284-.338-.625.25.029.44-.162.065-.1-1.687.216-.086,1.091,1.291Zm-.92-.238.541-.217-.605-.724Z" transform="translate(1276.27 -1192.826)" fill="#054b81"/>
        <path id="Trazado_995" data-name="Trazado 995" d="M-1254.359,1192.549l.171.562-.158.048-.467-1.537.476-.144a.457.457,0,0,1,.609.287l.032.107a.458.458,0,0,1-.345.581Zm-.255-.84.214.7.306-.093a.312.312,0,0,0,.238-.413l-.025-.083a.311.311,0,0,0-.427-.209Z" transform="translate(1270.761 -1190.491)" fill="#054b81"/>
        <path id="Trazado_996" data-name="Trazado 996" d="M-1247.016,1191.385l-.232-.376-.655.158-.035.44-.17.041.141-1.685.226-.054.894,1.436Zm-.877-.368.567-.137-.495-.8Z" transform="translate(1265.533 -1189.288)" fill="#054b81"/>
        <path id="Trazado_997" data-name="Trazado 997" d="M-1242.039,1188.613a.455.455,0,0,1,.569.355l.016.095a.427.427,0,0,1-.27.483l.447.563-.182.032-.426-.546-.324.057.106.6-.162.028-.278-1.58Zm-.317.2.123.7.33-.058a.31.31,0,0,0,.286-.377l-.012-.069a.309.309,0,0,0-.4-.255Z" transform="translate(1261.195 -1188.271)" fill="#054b81"/>
        <path id="Trazado_998" data-name="Trazado 998" d="M-1234.97,1189.245l-.183-.4-.67.075-.09.432-.173.02.351-1.655.231-.026.708,1.537Zm-.824-.475.58-.065-.391-.86Z" transform="translate(1256.161 -1187.558)" fill="#054b81"/>
        <path id="Trazado_999" data-name="Trazado 999" d="M-1226.567,1188.713l-.148-.416-.673.017-.127.423-.174,0,.491-1.618.232-.006.573,1.59Zm-.78-.543.583-.015-.316-.89Z" transform="translate(1249.614 -1187.113)" fill="#054b81"/>
        <path id="Trazado_1000" data-name="Trazado 1000" d="M-1220.513,1188.557l.7.023,0,.148-.869-.028.052-1.605.165.005Z" transform="translate(1244.152 -1187.095)" fill="#054b81"/>
        <path id="Trazado_1001" data-name="Trazado 1001" d="M-1215.522,1187.328l.888.076-.013.146-.723-.062-.049.572.7.06-.013.146-.7-.06-.051.588.749.064-.013.146-.914-.079Z" transform="translate(1240.236 -1187.276)" fill="#054b81"/>
        <path id="Trazado_1002" data-name="Trazado 1002" d="M-1209.35,1189.311l.194-1.306.163.024-.236,1.588-.175-.026-.588-1.422-.194,1.306-.163-.024.236-1.588.175.026Z" transform="translate(1236.096 -1187.693)" fill="#054b81"/>
        <path id="Trazado_1003" data-name="Trazado 1003" d="M-1202.438,1189.123l-.471-.1.031-.144,1.1.235-.031.144-.469-.1-.305,1.426-.162-.035Z" transform="translate(1230.296 -1188.486)" fill="#054b81"/>
        <path id="Trazado_1004" data-name="Trazado 1004" d="M-1198.351,1192.334l-.022-.441-.65-.177-.243.369-.168-.046.936-1.409.224.061.092,1.689Zm-.591-.745.563.153-.047-.943Z" transform="translate(1227.587 -1189.851)" fill="#054b81"/>
        <path id="Trazado_1005" data-name="Trazado 1005" d="M-1191.684,1192.193a.455.455,0,0,1,.328.585l-.031.091a.428.428,0,0,1-.469.293l.12.708-.175-.06-.11-.684-.312-.106-.2.579-.156-.053.518-1.519Zm-.374.021-.23.674.317.108a.31.31,0,0,0,.433-.193l.023-.066a.309.309,0,0,0-.225-.415Z" transform="translate(1222.326 -1190.941)" fill="#054b81"/>
        <path id="Trazado_1006" data-name="Trazado 1006" d="M-1184.126,1195.153l.817.358-.059.135-.665-.291-.23.526.643.281-.059.135-.643-.282-.237.541.688.3-.059.135-.841-.368Z" transform="translate(1216.154 -1193.377)" fill="#054b81"/>
        <path id="Trazado_1007" data-name="Trazado 1007" d="M-1179.678,1198.882l.629.317-.067.132-.776-.391.721-1.434.147.074Z" transform="translate(1212.351 -1195.211)" fill="#054b81"/>
        <path id="Trazado_1008" data-name="Trazado 1008" d="M-1172.139,1203.531a1,1,0,0,1-.38-.142.526.526,0,0,1-.2-.731l.31-.513a.524.524,0,0,1,.752-.171.92.92,0,0,1,.276.254l-.1.106a.95.95,0,0,0-.25-.229.374.374,0,0,0-.539.136l-.3.491a.371.371,0,0,0,.153.534,1.081,1.081,0,0,0,.333.13Z" transform="translate(1206.821 -1198.626)" fill="#054b81"/>
        <path id="Trazado_1009" data-name="Trazado 1009" d="M-1167.094,1205a.518.518,0,0,1,.176.75l-.35.508a.518.518,0,0,1-.764.1.519.519,0,0,1-.177-.751l.35-.508A.518.518,0,0,1-1167.094,1205Zm-.971.693a.367.367,0,0,0,.116.548.367.367,0,0,0,.553-.087l.335-.486a.367.367,0,0,0-.116-.548.367.367,0,0,0-.554.087Z" transform="translate(1203.317 -1200.961)" fill="#054b81"/>
        <path id="Trazado_1010" data-name="Trazado 1010" d="M-1162.727,1209.814l.821-1.034.129.1-1,1.257-.138-.11.2-1.525-.82,1.033-.129-.1,1-1.257.138.11Z" transform="translate(1199.697 -1203.532)" fill="#054b81"/>
        <path id="Trazado_1011" data-name="Trazado 1011" d="M-1158.182,1214.659a1.211,1.211,0,0,1-.276-.357l.122-.089a1.227,1.227,0,0,0,.245.323c.17.155.32.209.464.051.115-.125.11-.234,0-.421l-.118-.2a.4.4,0,0,1,.08-.506.437.437,0,0,1,.642.017,1.151,1.151,0,0,1,.253.321l-.12.092a1.087,1.087,0,0,0-.228-.292c-.15-.137-.308-.158-.428-.026a.261.261,0,0,0-.033.363l.118.2a.417.417,0,0,1-.042.561C-1157.7,1214.9-1157.934,1214.886-1158.182,1214.659Z" transform="translate(1195.641 -1207.547)" fill="#054b81"/>
        <path id="Trazado_1012" data-name="Trazado 1012" d="M-1151.9,1217.377l-.806.8a.5.5,0,0,1-.74-.042.5.5,0,0,1-.033-.741l.806-.8.116.117-.8.794a.35.35,0,0,0,.02.523.349.349,0,0,0,.521.025l.8-.794Z" transform="translate(1191.873 -1210.093)" fill="#054b81"/>
        <path id="Trazado_1013" data-name="Trazado 1013" d="M-1147.979,1222.93l-1.187.333-.075-.089.525-1.115-1.011.857-.1-.123,1.224-1.038.128.151-.554,1.168,1.244-.354.128.151-1.224,1.037-.1-.123Z" transform="translate(1188.916 -1214.117)" fill="#054b81"/>
        <path id="Trazado_1014" data-name="Trazado 1014" d="M-1142.348,1229.525a.518.518,0,0,1-.085.766l-.5.362a.518.518,0,0,1-.754-.157.518.518,0,0,1,.084-.767l.5-.362A.518.518,0,0,1-1142.348,1229.525Zm-1.147.329a.367.367,0,0,0-.073.556.367.367,0,0,0,.551.1l.478-.347a.367.367,0,0,0,.073-.556.367.367,0,0,0-.551-.1Z" transform="translate(1184.226 -1219.97)" fill="#054b81"/>
        <path id="Trazado_1015" data-name="Trazado 1015" d="M-1138.027,1236.573l.251.423a.523.523,0,0,1-.143.745l-.516.306a.505.505,0,0,1-.722-.232l-.251-.423Zm.123.484-.16-.27-1.138.675.16.27a.364.364,0,0,0,.535.168l.493-.293A.373.373,0,0,0-1137.9,1237.057Z" transform="translate(1180.788 -1225.669)" fill="#054b81"/>
        <path id="Trazado_1016" data-name="Trazado 1016" d="M-1134.8,1242.448l.408.793-.131.067-.332-.645-.51.263.321.624-.131.067-.321-.624-.525.27.344.669-.131.067-.42-.817Z" transform="translate(1178.314 -1230.249)" fill="#054b81"/>
        <path id="Trazado_1017" data-name="Trazado 1017" d="M-1132.593,1250.78l.271.65-.137.057-.334-.8,1.482-.617.063.152Z" transform="translate(1175.632 -1236.19)" fill="#054b81"/>
        <path id="Trazado_1018" data-name="Trazado 1018" d="M-1130.742,1257.838l.351-.269-.223-.635-.442.009-.057-.164,1.69-.028.077.219-1.338,1.033Zm.278-.909.193.55.75-.573Z" transform="translate(1174.322 -1241.4)" fill="#054b81"/>
        <path id="Trazado_1019" data-name="Trazado 1019" d="M-1127.6,1264.349l-.568.146-.041-.159,1.554-.4.123.481a.456.456,0,0,1-.314.6l-.108.027a.458.458,0,0,1-.565-.37Zm.849-.218-.713.183.079.31a.312.312,0,0,0,.4.255l.084-.021a.311.311,0,0,0,.228-.417Z" transform="translate(1172.058 -1247.003)" fill="#054b81"/>
        <path id="Trazado_1020" data-name="Trazado 1020" d="M-1125.139,1270.526a.455.455,0,0,1-.345.575l-.094.018a.428.428,0,0,1-.488-.262l-.555.456-.035-.182.539-.435-.063-.323-.6.116-.031-.162,1.576-.3Zm-.2-.314-.7.135.063.329a.311.311,0,0,0,.383.28l.069-.013a.31.31,0,0,0,.248-.4Z" transform="translate(1170.969 -1251.747)" fill="#054b81"/>
        <path id="Trazado_1021" data-name="Trazado 1021" d="M-1123.927,1276.834a.518.518,0,0,1-.442.632l-.612.078a.518.518,0,0,1-.587-.5.519.519,0,0,1,.442-.633l.612-.078A.519.519,0,0,1-1123.927,1276.834Zm-1.165-.261a.367.367,0,0,0-.331.452.367.367,0,0,0,.434.355l.586-.075a.367.367,0,0,0,.331-.452.367.367,0,0,0-.434-.355Z" transform="translate(1170.004 -1256.663)" fill="#054b81"/>
        <path id="Trazado_1022" data-name="Trazado 1022" d="M-1123.37,1283.2l.031.491a.524.524,0,0,1-.467.6l-.6.037a.506.506,0,0,1-.537-.536l-.031-.491Zm-.111.487-.02-.314-1.321.083.019.314c.016.26.165.408.4.393l.573-.036A.374.374,0,0,0-1123.481,1283.69Z" transform="translate(1169.535 -1262.022)" fill="#054b81"/>
        <path id="Trazado_1023" data-name="Trazado 1023" d="M-1123.124,1290.972l-1.132,0a.5.5,0,0,1-.495-.552.5.5,0,0,1,.5-.548l1.132,0v.164l-1.13,0a.35.35,0,0,0-.354.384.349.349,0,0,0,.352.385l1.129,0Z" transform="translate(1169.361 -1267.218)" fill="#054b81"/>
        <path id="Trazado_1024" data-name="Trazado 1024" d="M-1124.937,1297.327a1,1,0,0,1-.049-.4.526.526,0,0,1,.554-.519l.6.038a.524.524,0,0,1,.5.588.921.921,0,0,1-.1.362l-.142-.043a.952.952,0,0,0,.088-.327.373.373,0,0,0-.37-.416l-.573-.036a.371.371,0,0,0-.4.382,1.081,1.081,0,0,0,.038.355Z" transform="translate(1169.548 -1272.314)" fill="#054b81"/>
        <path id="Trazado_1025" data-name="Trazado 1025" d="M-1125.478,1302.649a1,1,0,0,1-.028-.4.525.525,0,0,1,.58-.488l.595.07a.523.523,0,0,1,.467.613.922.922,0,0,1-.117.357l-.14-.051a.957.957,0,0,0,.1-.322.373.373,0,0,0-.347-.435l-.57-.067a.371.371,0,0,0-.423.36,1.08,1.08,0,0,0,.019.357Z" transform="translate(1169.957 -1276.484)" fill="#054b81"/>
        <path id="Trazado_1026" data-name="Trazado 1026" d="M-1125.905,1307.17l.026-.163,1.586.251-.026.163Z" transform="translate(1170.262 -1280.58)" fill="#054b81"/>
        <path id="Trazado_1027" data-name="Trazado 1027" d="M-1125.2,1310.482a.518.518,0,0,1-.623.454l-.6-.125a.517.517,0,0,1-.392-.663.518.518,0,0,1,.623-.455l.6.125A.518.518,0,0,1-1125.2,1310.482Zm-1.016-.625a.366.366,0,0,0-.459.32.367.367,0,0,0,.3.476l.578.119a.367.367,0,0,0,.46-.32.367.367,0,0,0-.3-.476Zm1.244.5.266.416-.135.082-.232-.439Z" transform="translate(1170.985 -1282.665)" fill="#054b81"/>
        <path id="Trazado_1028" data-name="Trazado 1028" d="M-1128.6,1316.85l1.273.355-.044.159-1.547-.432.048-.17,1.484-.407-1.272-.355.044-.159,1.547.432-.047.17Z" transform="translate(1172.613 -1287.468)" fill="#054b81"/>
        <path id="Trazado_1029" data-name="Trazado 1029" d="M-1131.306,1325.092l-.248.659-.139-.052.306-.813,1.5.566-.058.155Z" transform="translate(1174.774 -1294.519)" fill="#054b81"/>
        <path id="Trazado_1030" data-name="Trazado 1030" d="M-1131.783,1330.9a.518.518,0,0,1-.7.311l-.563-.25a.518.518,0,0,1-.242-.731.518.518,0,0,1,.7-.312l.563.25A.518.518,0,0,1-1131.783,1330.9Zm-.86-.826a.367.367,0,0,0-.517.216.367.367,0,0,0,.187.528l.54.239a.367.367,0,0,0,.517-.216.366.366,0,0,0-.187-.528Z" transform="translate(1176.07 -1298.403)" fill="#054b81"/>
        <path id="Trazado_1031" data-name="Trazado 1031" d="M-1136.367,1336.514a1,1,0,0,1,.117-.388.525.525,0,0,1,.715-.252l.532.275a.523.523,0,0,1,.22.739.918.918,0,0,1-.235.292l-.113-.1a.95.95,0,0,0,.211-.265.373.373,0,0,0-.171-.529l-.51-.264a.371.371,0,0,0-.523.188,1.082,1.082,0,0,0-.108.341Z" transform="translate(1178.418 -1303.039)" fill="#054b81"/>
        <path id="Trazado_1032" data-name="Trazado 1032" d="M-1139.734,1340.315l.431.1.345-.579-.29-.333.089-.15,1.108,1.279-.119.2-1.653-.364Zm.876-.37-.3.5.922.207Z" transform="translate(1181.113 -1305.795)" fill="#054b81"/>
        <path id="Trazado_1033" data-name="Trazado 1033" d="M-1142.152,1345.552l-.4.583-.123-.083.487-.719,1.329.9-.092.136Z" transform="translate(1183.332 -1310.459)" fill="#054b81"/>
      </g>
      <g id="Grupo_256" data-name="Grupo 256" transform="translate(10.617 40.397)">
        <g id="Grupo_255" data-name="Grupo 255">
          <path id="Trazado_1034" data-name="Trazado 1034" d="M-1278.207,1377.265a1.213,1.213,0,0,1-.458-.174.635.635,0,0,1-.242-.885l.378-.618a.633.633,0,0,1,.91-.2,1.119,1.119,0,0,1,.332.309l-.127.128a1.148,1.148,0,0,0-.3-.278.451.451,0,0,0-.653.16l-.362.593a.448.448,0,0,0,.181.647,1.318,1.318,0,0,0,.4.16Z" transform="translate(1279.002 -1374.2)" fill="#054b81"/>
          <path id="Trazado_1035" data-name="Trazado 1035" d="M-1271.889,1377.167a.627.627,0,0,1,.324.874l-.343.662a.626.626,0,0,1-.9.239.627.627,0,0,1-.325-.875l.343-.662A.627.627,0,0,1-1271.889,1377.167Zm-1.061.979a.443.443,0,0,0,.222.64.444.444,0,0,0,.651-.188l.328-.634a.444.444,0,0,0-.222-.64.444.444,0,0,0-.651.188Zm.989-1.284.571-.174.051.185-.587.126Z" transform="translate(1274.487 -1375.302)" fill="#054b81"/>
          <path id="Trazado_1036" data-name="Trazado 1036" d="M-1265.033,1381.383a.551.551,0,0,1,.344.735l-.046.107a.517.517,0,0,1-.593.312l.082.866-.206-.088-.072-.835-.367-.156-.29.681-.183-.078.761-1.787Zm-.453-.008-.338.793.374.159a.376.376,0,0,0,.54-.194l.033-.078a.374.374,0,0,0-.235-.521Z" transform="translate(1269.149 -1378.773)" fill="#054b81"/>
          <path id="Trazado_1037" data-name="Trazado 1037" d="M-1258.376,1383.929l.564.191a.633.633,0,0,1,.455.8l-.233.687a.611.611,0,0,1-.846.355l-.564-.191Zm.494.348-.36-.122-.514,1.516.36.122a.441.441,0,0,0,.624-.267l.223-.657A.452.452,0,0,0-1257.883,1384.277Z" transform="translate(1263.408 -1380.947)" fill="#054b81"/>
          <path id="Trazado_1038" data-name="Trazado 1038" d="M-1249.869,1386.744a.626.626,0,0,1,.515.777l-.183.723a.627.627,0,0,1-.823.438.627.627,0,0,1-.516-.777l.183-.723A.627.627,0,0,1-1249.869,1386.744Zm-.81,1.194a.443.443,0,0,0,.362.573.444.444,0,0,0,.592-.331l.176-.693a.444.444,0,0,0-.363-.573.443.443,0,0,0-.591.331Z" transform="translate(1257.092 -1383.12)" fill="#054b81"/>
          <path id="Trazado_1039" data-name="Trazado 1039" d="M-1243.028,1389.99l.334-1.914.606.106a.473.473,0,0,1,.451.589.432.432,0,0,1-.364.374.49.49,0,0,1,.287.522l0,.011a.536.536,0,0,1-.7.421Zm.743-.81-.387-.068-.13.744.4.069a.378.378,0,0,0,.5-.3C-1241.864,1389.383-1242.025,1389.225-1242.285,1389.18Zm.452-.437c.037-.214-.06-.354-.3-.4l-.391-.068-.118.675.4.07A.315.315,0,0,0-1241.833,1388.744Z" transform="translate(1250.956 -1384.18)" fill="#054b81"/>
          <path id="Trazado_1040" data-name="Trazado 1040" d="M-1235.008,1391.419l-.115-.522-.811-.081-.216.489-.21-.021.833-1.87.28.028.449,2Zm-.855-.77.7.07-.245-1.116Z" transform="translate(1245.758 -1385.224)" fill="#054b81"/>
          <path id="Trazado_1041" data-name="Trazado 1041" d="M-1224.777,1395.145l.814,0v.164l-.814,0Z" transform="translate(1236.728 -1389.692)" fill="#054b81"/>
          <path id="Trazado_1042" data-name="Trazado 1042" d="M-1215.269,1391.419l-.21-.491-.812.071-.122.521-.21.019.471-1.992.28-.025.812,1.879Zm-.983-.6.7-.062-.448-1.051Z" transform="translate(1230.37 -1385.307)" fill="#054b81"/>
          <path id="Trazado_1043" data-name="Trazado 1043" d="M-1208.452,1388.584a.551.551,0,0,1,.684.438l.019.115a.517.517,0,0,1-.334.581l.533.688-.221.036-.508-.667-.394.064.12.73-.2.032-.314-1.917Zm-.387.236.139.851.4-.066a.375.375,0,0,0,.352-.453l-.014-.083a.374.374,0,0,0-.477-.314Z" transform="translate(1224.477 -1384.568)" fill="#054b81"/>
          <path id="Trazado_1044" data-name="Trazado 1044" d="M-1200.3,1388.65a1.342,1.342,0,0,1-.511.228.635.635,0,0,1-.814-.472l-.154-.689a.654.654,0,0,1,.568-.8,1.252,1.252,0,0,1,.509-.011l-.008.174a1.344,1.344,0,0,0-.445.014.477.477,0,0,0-.426.594l.148.659a.451.451,0,0,0,.606.343,1.14,1.14,0,0,0,.314-.119l-.156-.7.186-.042Z" transform="translate(1218.814 -1383.253)" fill="#054b81"/>
          <path id="Trazado_1045" data-name="Trazado 1045" d="M-1195.336,1385.049l1.031-.319.053.17-.839.259.205.663.812-.251.052.17-.811.251.211.683.869-.269.053.17-1.061.328Z" transform="translate(1213.775 -1381.572)" fill="#054b81"/>
          <path id="Trazado_1046" data-name="Trazado 1046" d="M-1187.612,1383.564l-.583-1.487.186-.073.708,1.807-.2.078-1.473-1.137.582,1.486-.186.073-.708-1.807.2-.078Z" transform="translate(1209.056 -1379.447)" fill="#054b81"/>
          <path id="Trazado_1047" data-name="Trazado 1047" d="M-1181.894,1379.373l-.525.253-.077-.16,1.229-.592.077.16-.524.252.766,1.59-.181.087Z" transform="translate(1203.764 -1377.006)" fill="#054b81"/>
          <path id="Trazado_1048" data-name="Trazado 1048" d="M-1174.789,1379.555l-.175.1-.927-1.707.175-.1Z" transform="translate(1198.615 -1376.207)" fill="#054b81"/>
          <path id="Trazado_1049" data-name="Trazado 1049" d="M-1171.392,1375.035l-.844-1.357.169-.105,1.025,1.649-.181.113-1.655-.85.843,1.355-.169.105-1.025-1.649.181-.113Z" transform="translate(1196.54 -1372.874)" fill="#054b81"/>
          <path id="Trazado_1050" data-name="Trazado 1050" d="M-1162.84,1371.7l-.436-.309-.655.485.168.507-.169.125-.638-1.943.226-.167,1.673,1.177Zm-1.15,0,.567-.42-.931-.661Z" transform="translate(1189.789 -1370.4)" fill="#054b81"/>
        </g>
      </g>
    </g>
  </g>
</svg>
