<svg xmlns="http://www.w3.org/2000/svg" width="125" height="46" viewBox="0 0 125 46"><defs><style>.a{fill:#02b0f3;}.b{fill:#d6a225;}.c{fill:#cb7121;}.d{fill:#a54a4e;}.e{fill:#c34043;}.f{fill:#e58026;}.g{fill:#f0b82b;}.h{fill:#9dbb1b;}.i{fill:#8aa827;}</style></defs><g transform="translate(890.398 -1227.467)"><path class="a" d="M-775.816,1281.141a11.477,11.477,0,0,1-3.742.575c-3.072,0-5.607-1.824-5.607-5.006v-5.248c0-3.37,2.6-5.149,5.731-5.149a10.539,10.539,0,0,1,3.44.575l-.4,2.63a9.82,9.82,0,0,0-2.759-.442,2.53,2.53,0,0,0-2.681,2.652v4.718c0,1.6,1.139,2.508,2.837,2.508a10.935,10.935,0,0,0,2.871-.431Z" transform="translate(-67.827 -25.188)"/><path class="a" d="M-756.338,1261.491c0-3.3,2.368-5.038,5.8-5.038s5.82,1.734,5.82,5.038v5.325c0,3.315-2.379,5.039-5.82,5.039s-5.8-1.723-5.8-5.039Zm3.329,5.4a2.224,2.224,0,0,0,2.469,2.387,2.233,2.233,0,0,0,2.479-2.387v-5.48a2.225,2.225,0,0,0-2.479-2.376,2.217,2.217,0,0,0-2.469,2.376Zm.525-11.766,2.547-4.022,2.949,1.016-3.518,3.6Z" transform="translate(-86.407 -15.328)"/><path class="a" d="M-712.886,1266.943c3.128,0,5.395,1.591,5.395,4.629v.961a4.107,4.107,0,0,1-2.557,3.988l2.815,5.381h-3.586l-2.323-4.806h-1.876v4.806h-3.317v-14.96Zm-2.133,2.585v5.082h2.033a1.945,1.945,0,0,0,2.19-2.043v-1.016a1.935,1.935,0,0,0-2.19-2.022Z" transform="translate(-110.9 -25.596)"/><path class="a" d="M-681.181,1266.943h5.405c3.374,0,5.742,1.856,5.742,4.906v5.237c0,3.315-2.368,4.817-5.742,4.817h-5.405Zm7.819,5.469c0-1.436-.648-2.883-2.558-2.883h-1.944v9.789h1.944c1.686,0,2.558-.851,2.558-2.276Z" transform="translate(-134.849 -25.596)"/><path class="a" d="M-645.726,1271.352c0-3.3,2.368-5.038,5.8-5.038s5.82,1.734,5.82,5.038v5.325c0,3.315-2.379,5.039-5.82,5.039s-5.8-1.724-5.8-5.039Zm3.329,5.4a2.224,2.224,0,0,0,2.469,2.387,2.233,2.233,0,0,0,2.479-2.387v-5.48a2.225,2.225,0,0,0-2.479-2.376,2.217,2.217,0,0,0-2.469,2.376Z" transform="translate(-157.701 -25.188)"/><path class="a" d="M-607.725,1281.9v-14.96h5.473c3.328,0,4.859,1.6,4.859,4.188a3.236,3.236,0,0,1-2.044,3.082,3.715,3.715,0,0,1,2.569,3.426c0,2.806-2.011,4.264-5.328,4.264Zm7.171-10.618c0-1.115-.614-1.79-1.944-1.79h-2.077v3.624h2.167A1.668,1.668,0,0,0-600.554,1271.285Zm-2,4.1h-2.021v3.967h2.066c1.508,0,2.4-.608,2.4-1.989S-601.057,1275.384-602.554,1275.384Z" transform="translate(-182.194 -25.596)"/><path class="a" d="M-566.588,1281.9l-.837-3.193h-4.647l-.838,3.193h-3.541l4.334-14.96h4.747l4.323,14.96Zm-4.926-5.767h3.541l-1.776-6.7Z" transform="translate(-202.352 -25.596)"/><path class="a" d="M-750.907,1316.414h4.595l-.208,1.407h-2.9l-.253,1.68h2.789l-.2,1.318h-2.795l-.259,1.719h3.015l-.214,1.407h-4.707Z" transform="translate(-89.175 -57.674)"/><path class="a" d="M-733.286,1319.184l-.715,4.761h-1.648l1.136-7.531h1.682l1.743,4.761.72-4.761h1.648l-1.142,7.531h-1.676Z" transform="translate(-99.743 -57.674)"/><path class="a" d="M-713.34,1317.8h-1.889l.208-1.385h5.477l-.214,1.385h-1.884l-.927,6.146h-1.7Z" transform="translate(-112.904 -57.674)"/><path class="a" d="M-697.121,1316.414c1.564,0,2.542.8,2.311,2.336l-.073.484a2.5,2.5,0,0,1-1.53,2.007l.951,2.7h-1.822l-.748-2.414h-.861l-.371,2.414h-1.688l1.136-7.531Zm-1.2,1.313-.387,2.548h.956a1.124,1.124,0,0,0,1.181-1.024l.079-.517a.791.791,0,0,0-.872-1.006Z" transform="translate(-122.106 -57.674)"/><path class="a" d="M-681.512,1316.414h4.594l-.208,1.407h-2.9l-.253,1.68h2.789l-.2,1.318h-2.8l-.259,1.719h3.015l-.214,1.407h-4.707Z" transform="translate(-133.903 -57.674)"/><path class="a" d="M-656.173,1317.8h-1.889l.208-1.385h5.478l-.214,1.385h-1.884l-.927,6.146h-1.7Z" transform="translate(-149.75 -57.674)"/><path class="a" d="M-642.891,1318.634a2.97,2.97,0,0,1,3.233-2.536c1.71,0,2.727.873,2.48,2.536l-.4,2.681a2.971,2.971,0,0,1-3.245,2.536c-1.7,0-2.722-.868-2.469-2.536Zm1.338,2.375c-.124.834.045,1.535.928,1.535s1.259-.7,1.383-1.535l.315-2.07c.123-.828-.045-1.53-.928-1.53a1.278,1.278,0,0,0-1.333,1.185Z" transform="translate(-159.243 -57.468)"/><path class="a" d="M-623.5,1316.414h2.671c1.676,0,2.688.935,2.452,2.47l-.4,2.636c-.247,1.669-1.512,2.425-3.188,2.425h-2.672Zm3.386,2.759c.106-.718-.068-1.446-.979-1.446H-622l-.742,4.906h.911a1.254,1.254,0,0,0,1.366-1.135Z" transform="translate(-171.296 -57.674)"/><path class="a" d="M-604.945,1318.634a2.97,2.97,0,0,1,3.233-2.536c1.709,0,2.727.873,2.48,2.536l-.4,2.681a2.971,2.971,0,0,1-3.245,2.536c-1.7,0-2.722-.868-2.469-2.536Zm1.338,2.375c-.124.834.045,1.535.928,1.535s1.259-.7,1.383-1.535l.315-2.07c.123-.828-.045-1.53-.928-1.53a1.278,1.278,0,0,0-1.333,1.185Z" transform="translate(-183.7 -57.468)"/><path class="a" d="M-585.507,1323.851a6.738,6.738,0,0,1-2.261-.356l.428-1.374a6,6,0,0,0,1.761.3c.821,0,1.372-.178,1.372-.923,0-.64-.652-.679-1.821-1.157a1.411,1.411,0,0,1-.934-1.463,2.718,2.718,0,0,1,2.913-2.781,6.452,6.452,0,0,1,2,.284l-.4,1.4a5.835,5.835,0,0,0-1.586-.256c-.765,0-1.265.323-1.265.956,0,.351.2.552.663.712l.77.261a1.686,1.686,0,0,1,1.355,1.747C-582.521,1322.811-583.4,1323.851-585.507,1323.851Z" transform="translate(-195.057 -57.468)"/><path class="a" d="M-884.609,1229.223l.078.627a1.037,1.037,0,0,1-.219.777l-1.046,1.313a1.058,1.058,0,0,1-.4.309l-.785.345a1.064,1.064,0,0,0-.425.339l-.592.8a1.033,1.033,0,0,0-.148.282l-2.2,6.405a1.036,1.036,0,0,0-.055.367l.176,6.01a1.047,1.047,0,0,0,.579.9l2.493,1.253a1.048,1.048,0,0,1,.543.666l.226.84a1.057,1.057,0,0,0,1.024.779,1.052,1.052,0,0,1,1.053,1.16l-.558,5.123a1.047,1.047,0,0,1-.171.469l-.239.353a1.038,1.038,0,0,0-.177.613l.415,13.495a1.054,1.054,0,0,0,1.066,1.016l9.846-.07a1.054,1.054,0,0,0,1.051-1.025l.07-3.192a1.053,1.053,0,0,1,1.008-1.023l1.985-.1a1.064,1.064,0,0,0,.83-.465l7.5-11.122a1.039,1.039,0,0,0-.162-1.35l-.782-.714a1.044,1.044,0,0,1-.338-.7l-.137-2.07a1.044,1.044,0,0,0-.315-.68l-.872-.844a1.044,1.044,0,0,1-.316-.689l-.2-3.569.712-.451,1.28-6.875a1.042,1.042,0,0,0-.09-.65l-1.255-2.54a1.06,1.06,0,0,0-.906-.587l-1.109-.047a1.055,1.055,0,0,1-1.008-.935l-.134-1.239a1.03,1.03,0,0,0-.148-.432l-1-1.626a1.06,1.06,0,0,0-.712-.486l-4.435-.817-.142-.535-3.164.17a1.061,1.061,0,0,1-.557-.123l-2.058-1.091a1.073,1.073,0,0,0-.674-.11l-3.529.58a1.049,1.049,0,0,0-.878,1.162" transform="translate(0)"/><g transform="translate(-841.606 1268.601)"><rect class="b" width="3.723" height="2.818" transform="translate(44.646)"/><rect class="c" width="7.199" height="2.818" transform="translate(31.063)"/><rect class="d" width="2.733" height="2.818" transform="translate(28.33)"/><rect class="a" width="5.82" height="2.818" transform="translate(21.743)"/><path class="a" d="M-753.132,1346.524v-1.311a.762.762,0,0,1,.771-.754h23.283l-.674,2.818h-22.608a.762.762,0,0,1-.771-.754" transform="translate(753.132 -1344.459)"/><path class="e" d="M-680.318,1344.459l-.626,2.818h3.087l-.417-2.818h-2.044" transform="translate(706.604 -1344.459)"/><path class="f" d="M-666.889,1347.277l-.631-2.818h3.861l-3.23,2.818" transform="translate(697.952 -1344.459)"/><path class="g" d="M-656.958,1347.277l3.23-2.818h7.778l.459,2.818h-11.466" transform="translate(691.144 -1344.459)"/><path class="h" d="M-620.2,1344.459l.585,2.818H-604.2a.762.762,0,0,0,.771-.754v-1.311a.762.762,0,0,0-.771-.754h-16" transform="translate(667.455 -1344.459)"/><path class="i" d="M-619.619,1347.277l5.372-2.818H-620.2" transform="translate(667.455 -1344.459)"/></g></g></svg>