<svg xmlns="http://www.w3.org/2000/svg" width="50" height="50" viewBox="0 0 50 50"><defs><style>.a{fill:#02b0f3;}</style></defs><g transform="translate(-0.344 0)"><g transform="translate(0.344 0)"><path class="a" d="M39.852,55.465a4.925,4.925,0,0,0-3.569-1.634,5.092,5.092,0,0,0-3.612,1.624l-3.337,3.322c-.275-.148-.549-.285-.813-.422-.38-.19-.739-.369-1.045-.559a36.25,36.25,0,0,1-8.691-7.908,21.361,21.361,0,0,1-2.851-4.492c.866-.791,1.669-1.613,2.45-2.4.3-.3.591-.6.887-.9a4.833,4.833,0,0,0,0-7.3l-2.883-2.879c-.327-.327-.665-.664-.982-1-.634-.654-1.3-1.329-1.985-1.961a5,5,0,0,0-3.538-1.55,5.177,5.177,0,0,0-3.591,1.55l-.021.021L2.68,32.594A7.71,7.71,0,0,0,.388,37.5,18.46,18.46,0,0,0,1.74,45.321,45.387,45.387,0,0,0,9.818,58.776,49.686,49.686,0,0,0,26.367,71.714a25.812,25.812,0,0,0,9.293,2.742c.222.011.454.021.665.021a7.963,7.963,0,0,0,6.093-2.615c.011-.021.032-.032.042-.053A23.988,23.988,0,0,1,44.309,69.9c.454-.432.919-.886,1.373-1.36a5.256,5.256,0,0,0,1.595-3.648,5.064,5.064,0,0,0-1.626-3.617Zm3.781,11.1c-.011,0-.011.011,0,0-.412.443-.834.844-1.288,1.286a27.747,27.747,0,0,0-2.038,2.109,5.1,5.1,0,0,1-3.971,1.677c-.158,0-.327,0-.486-.011a22.93,22.93,0,0,1-8.237-2.467A46.9,46.9,0,0,1,12.026,56.973a42.8,42.8,0,0,1-7.6-12.643,15.036,15.036,0,0,1-1.183-6.6A4.837,4.837,0,0,1,4.7,34.6L8.3,31A2.4,2.4,0,0,1,9.9,30.253a2.26,2.26,0,0,1,1.542.738l.032.032c.644.6,1.257,1.223,1.9,1.887.327.337.665.675,1,1.023l2.883,2.879a2.011,2.011,0,0,1,0,3.269c-.306.306-.6.612-.908.907-.887.907-1.732,1.75-2.651,2.573-.021.021-.042.032-.053.053a2.148,2.148,0,0,0-.549,2.394l.032.095a23.1,23.1,0,0,0,3.411,5.557l.011.011a38.74,38.74,0,0,0,9.378,8.52,14.427,14.427,0,0,0,1.3.706c.38.19.739.369,1.045.559.042.021.084.053.127.074a2.292,2.292,0,0,0,1.045.264,2.259,2.259,0,0,0,1.605-.728l3.612-3.606a2.39,2.39,0,0,1,1.595-.791,2.152,2.152,0,0,1,1.521.77l.021.021,5.819,5.81A2.083,2.083,0,0,1,43.633,66.568Z" transform="translate(-0.344 -24.477)"/><path class="a" d="M246.132,88.788a13.756,13.756,0,0,1,11.2,11.2,1.434,1.434,0,0,0,1.422,1.2,1.91,1.91,0,0,0,.246-.021,1.444,1.444,0,0,0,1.186-1.667,16.634,16.634,0,0,0-13.553-13.553,1.45,1.45,0,0,0-1.667,1.176A1.427,1.427,0,0,0,246.132,88.788Z" transform="translate(-219.221 -76.908)"/><path class="a" d="M272.769,22.34A27.389,27.389,0,0,0,250.451.022a1.441,1.441,0,1,0-.47,2.843A24.464,24.464,0,0,1,269.926,22.81a1.434,1.434,0,0,0,1.422,1.2,1.909,1.909,0,0,0,.246-.021A1.416,1.416,0,0,0,272.769,22.34Z" transform="translate(-222.791 0)"/></g></g></svg>