<svg xmlns="http://www.w3.org/2000/svg" width="61.059" height="61.059" viewBox="0 0 61.059 61.059"><defs><style>.a{fill:#bc0;}</style></defs><path class="a" d="M5.227,25.08V43.469a.894.894,0,0,0,1.789,0V25.08a5.119,5.119,0,0,0,3.322-2.147,5.105,5.105,0,0,0,8.433,0,5.105,5.105,0,0,0,8.433,0,5.105,5.105,0,0,0,8.433,0,5.105,5.105,0,0,0,8.433,0,5.105,5.105,0,0,0,8.433,0,5.119,5.119,0,0,0,3.322,2.147v3.363a.894.894,0,1,0,1.789,0V25.08a5.118,5.118,0,0,0,4.217-5.031V17.76h0a.892.892,0,0,0-.1-.4L53.847,1.809A3.288,3.288,0,0,0,50.9,0H11.937A3.289,3.289,0,0,0,8.991,1.809L1.107,17.355a.892.892,0,0,0-.1.4h0v2.289A5.118,5.118,0,0,0,5.227,25.08Zm.894-1.709A3.326,3.326,0,0,1,2.8,20.049V18.655H9.443v1.394A3.326,3.326,0,0,1,6.121,23.371ZM21.39,1.789,18.052,16.866H11.615L17.107,1.789Zm6.17,0L26.376,16.866H19.884L23.223,1.789Zm5.923,0,1.185,15.077h-6.5L29.355,1.789Zm6.132,0,3.338,15.077H36.462L35.278,1.789Zm6.115,0,5.492,15.077H44.786L41.448,1.789ZM14.554,23.371a3.326,3.326,0,0,1-3.322-3.322V18.655h6.644v1.394A3.326,3.326,0,0,1,14.554,23.371Zm8.433,0a3.326,3.326,0,0,1-3.322-3.322V18.655h6.644v1.394A3.326,3.326,0,0,1,22.986,23.371Zm8.433,0A3.326,3.326,0,0,1,28.1,20.049V18.655h6.644v1.394a3.326,3.326,0,0,1-3.322,3.322Zm8.433,0a3.326,3.326,0,0,1-3.322-3.322V18.655h6.644v1.394A3.326,3.326,0,0,1,39.852,23.371Zm8.433,0a3.326,3.326,0,0,1-3.322-3.322V18.655h6.644v1.394A3.326,3.326,0,0,1,48.285,23.371Zm8.433,0A3.326,3.326,0,0,1,53.4,20.049V18.655h6.644v1.394A3.326,3.326,0,0,1,56.717,23.371ZM52.252,2.619l7.225,14.247h-6.35L47.635,1.789H50.9A1.508,1.508,0,0,1,52.252,2.619Zm-41.666,0a1.508,1.508,0,0,1,1.351-.83H15.2L9.711,16.866H3.361Z" transform="translate(-0.89)"/><path class="a" d="M223.13,252.541a.894.894,0,0,0-.894.894v20.72a.894.894,0,0,0,.894.894h24.575a.894.894,0,0,0,.894-.894v-20.72a.894.894,0,0,0-.894-.894Zm.894,1.789h22.787v15.077H224.025Zm22.787,18.932H224.025V271.2h22.787Z" transform="translate(-195.733 -222.424)"/><path class="a" d="M158.479,334.364a.894.894,0,0,0-.894.894v4.819a.894.894,0,0,0,1.789,0v-4.819A.894.894,0,0,0,158.479,334.364Z" transform="translate(-138.792 -294.489)"/><path class="a" d="M58.96,277.839H56.722v-22.8a.894.894,0,1,0-1.789,0v22.8h-30.5v-24.4a.894.894,0,0,0-.894-.894H9.086a.894.894,0,0,0-.894.894v24.4H6.126v-7.772a.894.894,0,0,0-1.789,0v7.772H2.1a2.1,2.1,0,0,0-2.1,2.1v1.445a2.1,2.1,0,0,0,2.1,2.1H48.441a.894.894,0,1,0,0-1.789H2.1a.31.31,0,0,1-.31-.31v-1.445a.311.311,0,0,1,.31-.311H58.96a.311.311,0,0,1,.31.311v1.445a.31.31,0,0,1-.31.31H52.615a.894.894,0,0,0,0,1.789H58.96a2.1,2.1,0,0,0,2.1-2.1v-1.445a2.1,2.1,0,0,0-2.1-2.1ZM9.981,254.33H22.648v23.509H9.981Z" transform="translate(0 -222.424)"/></svg>