<svg xmlns="http://www.w3.org/2000/svg" width="42" height="50" viewBox="0 0 42 50"><defs><style>.a{fill:#02b0f3;}</style></defs><g transform="translate(-39.451)"><g transform="translate(39.451)"><g transform="translate(0)"><path class="a" d="M75.3,6.194a20.9,20.9,0,0,0-29.7,0,21.084,21.084,0,0,0-6.151,14.953c0,11.427,10.729,20.931,16.493,26.038.8.71,1.493,1.322,2.044,1.841a3.6,3.6,0,0,0,4.926,0c.551-.518,1.243-1.131,2.044-1.841,5.764-5.106,16.493-14.611,16.493-26.038A21.085,21.085,0,0,0,75.3,6.194ZM63.037,44.986c-.819.725-1.525,1.351-2.108,1.9a.7.7,0,0,1-.955,0c-.583-.548-1.29-1.175-2.108-1.9-5.419-4.8-15.506-13.736-15.506-23.838a18.092,18.092,0,1,1,36.183,0C78.542,31.25,68.456,40.186,63.037,44.986Z" transform="translate(-39.451)"/></g></g><g transform="translate(51.197 11.029)"><g transform="translate(0)"><path class="a" d="M169.824,112.938a9.32,9.32,0,1,0,9.254,9.319A9.3,9.3,0,0,0,169.824,112.938Zm0,15.71a6.391,6.391,0,1,1,6.346-6.39A6.376,6.376,0,0,1,169.824,128.648Z" transform="translate(-160.57 -112.938)"/></g></g></g></svg>