<svg xmlns="http://www.w3.org/2000/svg" xmlns:xlink="http://www.w3.org/1999/xlink" width="44" height="44" viewBox="0 0 44 44"><defs><style>.a{fill:url(#a);}.b{fill:url(#b);}.c{fill:#fff;}</style><radialGradient id="a" cx="0.266" cy="1.077" r="0.991" gradientTransform="translate(-2.918 5.666) rotate(-90) scale(1 0.93)" gradientUnits="objectBoundingBox"><stop offset="0" stop-color="#fd5"/><stop offset="0.1" stop-color="#fd5"/><stop offset="0.5" stop-color="#ff543e"/><stop offset="1" stop-color="#c837ab"/></radialGradient><radialGradient id="b" cx="-0.168" cy="0.072" r="0.443" gradientTransform="matrix(0.196, 0.981, -4.042, 0.809, 15.634, -0.42)" gradientUnits="objectBoundingBox"><stop offset="0" stop-color="#3771c8"/><stop offset="0.128" stop-color="#3771c8"/><stop offset="1" stop-color="#60f" stop-opacity="0"/></radialGradient></defs><g transform="translate(0)"><path class="a" d="M22.007,0C12.822,0,10.136.009,9.614.053a10.912,10.912,0,0,0-4.336,1.09A8.782,8.782,0,0,0,2.75,2.994,9.445,9.445,0,0,0,.2,8.346C.053,9.375.01,9.585,0,14.841c0,1.752,0,4.058,0,7.151,0,9.18.01,11.864.054,12.385A11.055,11.055,0,0,0,1.1,38.628a9.268,9.268,0,0,0,6.007,4.908,15.6,15.6,0,0,0,3.194.423c.545.024,6.1.041,11.654.041s11.113-.007,11.644-.034a15.026,15.026,0,0,0,3.31-.433,9.212,9.212,0,0,0,6.007-4.918,10.874,10.874,0,0,0,1.037-4.169c.03-.379.042-6.424.042-12.46s-.014-12.071-.043-12.45A10.752,10.752,0,0,0,42.9,5.325a8.722,8.722,0,0,0-1.883-2.581A9.5,9.5,0,0,0,35.658.2C34.631.053,34.426.009,29.167,0Z" transform="translate(0)"/><path class="b" d="M22.007,0C12.822,0,10.136.009,9.614.053a10.912,10.912,0,0,0-4.336,1.09A8.782,8.782,0,0,0,2.75,2.994,9.445,9.445,0,0,0,.2,8.346C.053,9.375.01,9.585,0,14.841c0,1.752,0,4.058,0,7.151,0,9.18.01,11.864.054,12.385A11.055,11.055,0,0,0,1.1,38.628a9.268,9.268,0,0,0,6.007,4.908,15.6,15.6,0,0,0,3.194.423c.545.024,6.1.041,11.654.041s11.113-.007,11.644-.034a15.026,15.026,0,0,0,3.31-.433,9.212,9.212,0,0,0,6.007-4.918,10.874,10.874,0,0,0,1.037-4.169c.03-.379.042-6.424.042-12.46s-.014-12.071-.043-12.45A10.752,10.752,0,0,0,42.9,5.325a8.722,8.722,0,0,0-1.883-2.581A9.5,9.5,0,0,0,35.658.2C34.631.053,34.426.009,29.167,0Z" transform="translate(0)"/><path class="c" d="M33.244,17c-4.411,0-4.965.019-6.7.1a11.917,11.917,0,0,0-3.942.755A8.31,8.31,0,0,0,17.852,22.6a11.871,11.871,0,0,0-.755,3.943c-.077,1.733-.1,2.287-.1,6.7s.02,4.965.1,6.7a11.944,11.944,0,0,0,.755,3.943,8.313,8.313,0,0,0,4.75,4.753,11.927,11.927,0,0,0,3.943.755c1.733.079,2.286.1,6.7.1s4.964-.019,6.7-.1a11.934,11.934,0,0,0,3.944-.755,8.324,8.324,0,0,0,4.75-4.753,12.046,12.046,0,0,0,.755-3.943c.078-1.733.1-2.285.1-6.7s-.02-4.966-.1-6.7a12.04,12.04,0,0,0-.755-3.943,8.311,8.311,0,0,0-4.751-4.752,11.954,11.954,0,0,0-3.946-.755c-1.733-.079-2.284-.1-6.7-.1Zm-1.457,2.928h1.457c4.337,0,4.851.016,6.564.093a8.991,8.991,0,0,1,3.016.56,5.383,5.383,0,0,1,3.082,3.084,8.979,8.979,0,0,1,.559,3.016c.078,1.713.095,2.227.095,6.563s-.017,4.851-.095,6.563a8.988,8.988,0,0,1-.559,3.016A5.387,5.387,0,0,1,42.823,45.9a8.958,8.958,0,0,1-3.016.56c-1.712.078-2.227.095-6.564.095s-4.851-.017-6.564-.095a9.008,9.008,0,0,1-3.016-.56,5.382,5.382,0,0,1-3.083-3.083,8.98,8.98,0,0,1-.559-3.016c-.078-1.713-.093-2.227-.093-6.566s.016-4.851.093-6.563a9,9,0,0,1,.559-3.017,5.384,5.384,0,0,1,3.083-3.084,8.971,8.971,0,0,1,3.016-.56c1.5-.068,2.079-.088,5.106-.091Zm10.128,2.7a1.95,1.95,0,1,0,1.949,1.949,1.949,1.949,0,0,0-1.949-1.949ZM33.244,24.9a8.343,8.343,0,1,0,8.34,8.344,8.343,8.343,0,0,0-8.34-8.344Zm0,2.928a5.416,5.416,0,1,1-5.414,5.416A5.415,5.415,0,0,1,33.244,27.832Z" transform="translate(-11.248 -11.246)"/></g></svg>