<svg xmlns="http://www.w3.org/2000/svg" width="44" height="44" viewBox="0 0 44 44"><defs><style>.a{fill:#1877f2;}.b{fill:#fff;}</style></defs><path class="a" d="M44,22A22,22,0,1,0,18.563,43.733V28.359H12.977V22h5.586V17.153c0-5.514,3.285-8.559,8.31-8.559a33.845,33.845,0,0,1,4.925.43v5.414H29.023c-2.733,0-3.585,1.7-3.585,3.438V22h6.1l-.975,6.359H25.438V43.733A22.006,22.006,0,0,0,44,22Z"/><path class="b" d="M319.587,219.766l.975-6.359h-6.1v-4.125c0-1.74.853-3.437,3.585-3.437h2.774V200.43A33.829,33.829,0,0,0,315.9,200c-5.025,0-8.31,3.046-8.31,8.559v4.847H302v6.359h5.586v15.373a22.241,22.241,0,0,0,6.875,0V219.766Z" transform="translate(-289.023 -191.406)"/></svg>