<svg xmlns="http://www.w3.org/2000/svg" width="60.976" height="61" viewBox="0 0 60.976 61"><defs><style>.a{fill:#ea7f25;}</style></defs><g transform="translate(-0.102)"><g transform="translate(0.102 0)"><path class="a" d="M217.915,147.241a1.419,1.419,0,0,0,1.417-1.417v-3.741a1.418,1.418,0,0,0-1.417-1.417H209.2a1.418,1.418,0,0,0-1.417,1.417v3.741a1.419,1.419,0,0,0,1.417,1.417Zm-8.351-4.79h7.982v3.005h-7.982Z" transform="translate(-183.068 -123.928)"/><path class="a" d="M317.942,358.159a1.418,1.418,0,0,0-1.417,1.417v3.741a1.419,1.419,0,0,0,1.417,1.417h8.719a1.419,1.419,0,0,0,1.417-1.417v-3.741a1.418,1.418,0,0,0-1.417-1.417Zm8.351,4.79H318.31v-3.005h7.982Z" transform="translate(-278.874 -315.542)"/><path class="a" d="M109.171,358.159h-8.718a1.418,1.418,0,0,0-1.417,1.417v3.741a1.418,1.418,0,0,0,1.417,1.417h8.718a1.419,1.419,0,0,0,1.417-1.417v-3.741A1.418,1.418,0,0,0,109.171,358.159Zm-.368,4.79h-7.982v-3.005H108.8Z" transform="translate(-87.264 -315.542)"/><path class="a" d="M59.746,51.759H57.361V48.3a.892.892,0,0,0-1.785,0v3.459H31.482V27.665h8.065v5.98a1.437,1.437,0,0,0,2.092,1.278l1.89-.969,1.89.969a1.437,1.437,0,0,0,2.092-1.279v-5.98h8.042a.023.023,0,0,1,.023.023V44.246a.892.892,0,0,0,1.785,0V27.688a1.81,1.81,0,0,0-1.808-1.808H44.422V1.807A1.809,1.809,0,0,0,42.614,0H18.566a1.81,1.81,0,0,0-1.808,1.808V6.283a.892.892,0,1,0,1.785,0V1.808a.023.023,0,0,1,.023-.023h8.042v5.98A1.434,1.434,0,0,0,28.7,9.043l1.89-.969,1.89.969a1.437,1.437,0,0,0,2.092-1.278V1.785h8.043a.023.023,0,0,1,.023.023V25.879H18.543V10.337a.892.892,0,0,0-1.785,0V25.88H5.626a1.81,1.81,0,0,0-1.808,1.808V51.759H1.434A1.333,1.333,0,0,0,.1,53.091v2.591a1.333,1.333,0,0,0,1.332,1.332h2.1v2.4A1.589,1.589,0,0,0,5.12,61h2.6A1.589,1.589,0,0,0,9.3,59.412v-2.4H51.876v2.4A1.589,1.589,0,0,0,53.464,61h2.6a1.589,1.589,0,0,0,1.588-1.588v-2.4h2.1a1.333,1.333,0,0,0,1.332-1.332V53.091A1.333,1.333,0,0,0,59.746,51.759ZM32.787,7.195,31.245,6.4a1.441,1.441,0,0,0-1.311,0l-1.542.79V1.785h4.394Zm8.545,20.47h4.394v5.41l-1.542-.79a1.44,1.44,0,0,0-1.311,0l-1.542.79Zm-25.879,0h4.394v5.41l-1.542-.79a1.44,1.44,0,0,0-1.311,0l-1.542.79v-5.41Zm-9.85.023a.023.023,0,0,1,.023-.023h8.042v5.98a1.437,1.437,0,0,0,2.092,1.278l1.89-.969,1.89.969a1.437,1.437,0,0,0,2.092-1.279v-5.98H29.7V51.759H5.6ZM7.519,59.215h-2.2v-2.2h2.2Zm48.343,0h-2.2v-2.2h2.2Zm3.43-3.986H1.887V53.544H59.293Z" transform="translate(-0.102 0)"/></g></g></svg>