<svg xmlns="http://www.w3.org/2000/svg" width="49.887" height="38" viewBox="0 0 49.887 38"><defs><style>.a{fill:#02b0f3;}</style></defs><g transform="translate(0 -61)"><g transform="translate(0 61)"><path class="a" d="M45.5,61H4.385A4.392,4.392,0,0,0,0,65.385V94.615A4.392,4.392,0,0,0,4.385,99H45.5a4.392,4.392,0,0,0,4.385-4.385V65.385A4.392,4.392,0,0,0,45.5,61ZM44.9,63.923,25.037,83.784,5,63.923ZM2.923,94.01V65.976L17,79.933ZM4.99,96.077,19.076,81.991l4.936,4.893a1.461,1.461,0,0,0,2.062,0l4.813-4.813L44.9,96.077ZM46.964,94.01,32.954,80l14.01-14.01Z" transform="translate(0 -61)"/></g></g></svg>