<svg xmlns="http://www.w3.org/2000/svg" width="58.857" height="61" viewBox="0 0 58.857 61"><defs><style>.a{fill:#e1464b;}</style></defs><g transform="translate(-8.967 0.001)"><path class="a" d="M19.7,332.025a14.6,14.6,0,0,0-3.261,4.45l-.422.889L9.16,346.019a.9.9,0,0,0,1.405,1.113l6.92-8.736a.9.9,0,0,0,.107-.172l.465-.981a12.81,12.81,0,0,1,2.862-3.906.9.9,0,1,0-1.221-1.312Z" transform="translate(0 -292.133)"/><path class="a" d="M167.129,250.889a3.449,3.449,0,0,0-4.856-.4l-.463.393a3.443,3.443,0,0,0-5.607-1.968l-.411.348a3.45,3.45,0,0,0-5.6-1.918l-6.889,5.839a4.074,4.074,0,0,0-1.112-.155H129.81a14.728,14.728,0,0,0-6.643,1.593.9.9,0,0,0,.812,1.6,12.929,12.929,0,0,1,5.83-1.4h12.379a2.3,2.3,0,1,1-.05,4.59H134.13a.9.9,0,1,0,0,1.793h8.063a4.054,4.054,0,0,0,2.855-1.165,4.173,4.173,0,0,0,.316-.347h7.574a3.414,3.414,0,0,0,2.205-.809l8.29-7.026a1.653,1.653,0,0,1,2.137,2.521l-13.087,11.091a8.129,8.129,0,0,1-4.3,1.875l-1.615.194a.9.9,0,0,0,.106,1.786.92.92,0,0,0,.108-.007l1.615-.194a9.914,9.914,0,0,0,5.242-2.287l13.087-11.091A3.449,3.449,0,0,0,167.129,250.889Zm-15.78-2.178a1.652,1.652,0,0,1,2.285,2.379l-7.363,6.24c0-.071.006-.143.006-.215a4.077,4.077,0,0,0-1.31-3Zm-2.975,9.187,8.988-7.617A1.653,1.653,0,1,1,159.5,252.8l-5.515,4.712a1.621,1.621,0,0,1-1.046.384Z" transform="translate(-100.121 -217.066)"/><path class="a" d="M173.032,426.1l-9.191,1.106a.9.9,0,0,0-.581.315l-6,7.178a.9.9,0,0,0,1.376,1.149l5.768-6.906,8.838-1.063a.9.9,0,1,0-.214-1.78Z" transform="translate(-130.39 -375.173)"/><path class="a" d="M166.856,25.648s-5.238-8.154-5.246-8.165a9.964,9.964,0,0,1-1.7-4.245.9.9,0,1,0-1.773.265,11.762,11.762,0,0,0,2,5l5.072,7.9V27.7a1.581,1.581,0,0,0,.355,1v3.081a2.618,2.618,0,0,0,2.615,2.615h3.162a2.618,2.618,0,0,0,2.615-2.615V28.7a1.581,1.581,0,0,0,.355-1V26.395l5.072-7.9a11.756,11.756,0,0,0-3-16.459A11.981,11.981,0,0,0,165.1.9,10.93,10.93,0,0,0,158.93,7.03a13.4,13.4,0,0,0-.691,2.34A.9.9,0,0,0,160,9.717a11.611,11.611,0,0,1,.6-2.026,9.132,9.132,0,0,1,5.159-5.123,10.214,10.214,0,0,1,9.613.954A9.963,9.963,0,0,1,177.9,17.483c-.007.011-5.246,8.165-5.246,8.165a.9.9,0,0,0-.142.484V27.5H172.3l.511-8.665h.855a2.5,2.5,0,0,0,2.493-2.493v-.1a2.493,2.493,0,0,0-4.982-.147l-.056.946H168.4l-.056-.946a2.493,2.493,0,0,0-4.982.147v.1a2.5,2.5,0,0,0,2.493,2.493h.855l.51,8.665H167V26.132a.9.9,0,0,0-.142-.484Zm6.107-9.447a.7.7,0,0,1,1.4.041v.1a.7.7,0,0,1-.7.7h-.749Zm-7.1.841a.7.7,0,0,1-.7-.7v-.1a.7.7,0,0,1,1.4-.041l.05.841h-.749Zm6.3,14.741a.823.823,0,0,1-.822.822h-3.162a.823.823,0,0,1-.822-.822V29.291h4.807Zm-3.65-12.949h2.5L170.5,27.5h-1.48Z" transform="translate(-131.332 0)"/><path class="a" d="M385.353,99.872a.9.9,0,0,0,.9.9h2.113a.9.9,0,0,0,0-1.793h-2.113A.9.9,0,0,0,385.353,99.872Z" transform="translate(-331.404 -87.148)"/><path class="a" d="M374.383,48.2a.893.893,0,0,0,.311-.056l1.981-.734a.9.9,0,1,0-.623-1.681l-1.981.734a.9.9,0,0,0,.312,1.737Z" transform="translate(-320.956 -40.215)"/><path class="a" d="M374.072,147.869l1.981.734a.9.9,0,0,0,.623-1.681l-1.981-.734a.9.9,0,1,0-.623,1.681Z" transform="translate(-320.956 -128.668)"/><path class="a" d="M93.778,100.769h2.113a.9.9,0,0,0,0-1.793H93.778a.9.9,0,0,0,0,1.793Z" transform="translate(-73.887 -87.148)"/><path class="a" d="M106.43,47.411l1.981.734a.9.9,0,0,0,.623-1.681l-1.981-.734a.9.9,0,1,0-.623,1.681Z" transform="translate(-85.301 -40.217)"/><path class="a" d="M109.564,146.716a.9.9,0,0,0-1.152-.529l-1.981.734a.9.9,0,1,0,.623,1.681l1.981-.734A.9.9,0,0,0,109.564,146.716Z" transform="translate(-85.301 -128.668)"/></g></svg>