<svg xmlns="http://www.w3.org/2000/svg" width="400" height="400" viewBox="0 0 400 400">
  <g id="logo-hechoencba" transform="translate(1335.677 -1179.788)">
    <path id="Trazado_1051" data-name="Trazado 1051" d="M200,0C310.457,0,400,89.543,400,200S310.457,400,200,400,0,310.457,0,200,89.543,0,200,0Z" transform="translate(-1335.677 1179.788)" fill="#fff"/>
    <g id="Grupo_257" data-name="Grupo 257" transform="translate(-1320.761 1193.348)">
      <g id="Grupo_253" data-name="Grupo 253" transform="translate(20.253 20.277)">
        <path id="Trazado_942" data-name="Trazado 942" d="M-1240.992,1344.16c0,26.178,4.339,44.932,23.056,62.8,60.143,57.4,157.337-7.084,125.082-86.057-7-17.135-21.7-31.615-38.408-39.639-37.633-18.082-83.338-1.794-101.523,34.681-3.434,6.89-8.207,18.653-8.207,28.218m-58.537-14.309c.494-5.934,4.551-19.981,6.328-24.893,13.121-36.227,39.173-63.752,74.285-79.213,49.313-21.715,111.332-12.034,146.719,23.768,5.512,5.575,10.254,9.69,15.191,16.028,12.96,16.638,28.05,43.673,28.05,65.609-20.781,1.729-19.362,38.715,0,40.327,0,15.764-9.709,37.218-16.019,47.721-42.317,70.411-128.307,89.654-192.654,47.779-31.3-20.369-58.9-58.174-61.9-94.2,8.036-4.253,15.61-8.411,15.61-20.815,0-13.385-6.1-17.082-15.61-22.112" transform="translate(1328.019 -1186.649)" fill="#054b81" fill-rule="evenodd"/>
        <path id="Trazado_943" data-name="Trazado 943" d="M-1302.944,1336.139c3.3,1.582,16.908,2.724,16.908,18.211,0,8.16-7.137,15.422-15.608,15.61,0,34.313,24.942,71.224,43.237,88.148,10.3,9.533,27.582,21.024,40.182,26.158,62.408,25.425,131.759,8.087,169.873-43.128,13.458-18.084,28.442-46.707,28.988-71.178-21.352-.474-22.551-32.017,0-32.52-.506-22.689-14.607-51.981-27.874-69.689-39.057-52.13-109.1-70.928-170.248-45.178-14.595,6.144-23.789,12.546-35.129,22.1-21.056,17.752-34.722,37.751-43.68,64.294Zm6.5-3.9c.494-5.934,4.55-19.98,6.329-24.893,13.119-36.227,39.174-63.752,74.283-79.213,49.314-21.714,111.334-12.034,146.719,23.768,5.511,5.575,10.254,9.69,15.19,16.028,12.962,16.638,28.051,43.673,28.051,65.609-20.781,1.729-19.362,38.715,0,40.327,0,15.763-9.709,37.22-16.019,47.721-42.317,70.41-128.309,89.654-192.652,47.779-31.3-20.369-58.9-58.174-61.9-94.2,8.036-4.253,15.61-8.412,15.61-20.815,0-13.385-6.1-17.082-15.61-22.112" transform="translate(1325.414 -1189.037)" fill="#00a0e3" fill-rule="evenodd"/>
        <path id="Trazado_944" data-name="Trazado 944" d="M-1266.054,1318.366c0,26.18,4.339,44.934,23.057,62.8,60.142,57.4,157.336-7.083,125.082-86.055-7-17.137-21.7-31.614-38.41-39.639-37.632-18.082-83.336-1.793-101.522,34.681-3.434,6.89-8.207,18.653-8.207,28.216m5.2,6.506c0-17.9,8.216-36.328,20.482-48.461,18.488-18.29,32.1-21.783,57.568-21.783,29.473,0,65.039,32.784,65.039,68.943,0,64.237-74.281,98.8-123.263,50.419-10.46-10.332-19.826-28.867-19.826-49.118" transform="translate(1353.563 -1160.857)" fill="#00a0e3" fill-rule="evenodd"/>
        <path id="Trazado_945" data-name="Trazado 945" d="M-1161.357,1202.052c-7.558,0-14.424-6.088-25.533,2.162-6.682,4.963-2.553,2.387-12.454,2.375-17.137-.019-10.194,9.5-24.165,10.478-16.645,1.165-12.613,10.943-20.716,13.837-5.968,2.133-7.059.229-12.1,5.171-7.544,7.4-2.42,10.058-11.424,13.913-3.339,1.432-3.094,1.014-6.056,3.159-3.755,2.724-5.346,5.432-6.74,10.536-3.87,14.161-10.175,5.439-14.635,19.919-2.214,7.195,1.509,7.791-4.025,13.251-3.253,3.211-6.116,5.557-7.017,10.258-1.165,6.091,1.372,11.021-1.694,15.584-2.556,3.806-5.467,3.369-5.467,15.261,0,5.984,2.6,6.744,1.513,10.771-1.733,6.43-3.815,1.389-3.815,14.568,0,6.255,3.456,9.976,3.456,10.367,0,7.557-6.088,14.422,2.161,25.533,4.962,6.68,2.387,2.551,2.375,12.451-.007,5.961,1.382,9.751,4.358,13.011,4.924,5.39,5.5,2.275,6.119,11.155.609,8.683,3.756,12.246,9.44,15.9,9.236,5.93,1.643,8.836,9.568,16.921,7.375,7.52,9.773,2.428,14.022,11.317a40.211,40.211,0,0,0,3.076,6.135c1.832,2.521,7.03,5.765,10.488,6.79,8.692,2.574,5.409.535,9.829,7.447,6.9,10.8,17.117,4.861,23.362,11.19,13.794,13.981,17.542,3.138,25.839,8.711,3.81,2.557,3.371,5.467,15.263,5.467,5.679,0,7.37-2.658,10.95-1.693,5.908,1.592.268,3.995,15.54,3.995,5.391,0,6.232-3.184,10.908-3.819,3.947-.534,11.791,7.149,23.84-1.8,9.973-7.406,13.588,2.659,25.352-6.841,6.264-5.06.033-5.026,11.211-6.067,16.352-1.521,13.417-10.922,20.637-13.916,4.492-1.862,7.859-1.216,12.218-5.056,4.549-4.009,3.956-6.652,6.668-10.608,1.222-1.786-.261-.284,1.668-1.788,3.038-2.369,12.474-3.5,15.924-15.169,2.435-8.225.55-5.5,7.278-10,12.022-8.041,4.519-16.442,11.361-23.193,13.983-13.795,3.138-17.542,8.711-25.839,2.559-3.808,5.468-3.369,5.468-15.263,0-6.486-3.124-7.186-1.388-11.689,1.814-4.711,3.69-2.973,3.69-13.65,0-7.264-2.389-6.985-3.623-11.328-1.372-4.829,7.353-11.984-1.994-24.572-5-6.737-2.359-2.534-2.364-12.461-.005-16.236-9.557-10.831-10.488-24.154-1.164-16.617-10.7-12.435-13.823-20.73-7.3-19.392-4.164-10.767-15.813-18.74-1.783-1.22-.284.254-1.79-1.666a17.488,17.488,0,0,1-1.6-3,40.038,40.038,0,0,0-3.078-6.135c-1.83-2.521-7.026-5.766-10.487-6.79-8.692-2.574-5.409-.534-9.829-7.447-6.9-10.8-17.118-4.859-23.362-11.189-13.794-13.983-17.542-3.138-25.839-8.713-3.808-2.556-3.37-5.465-15.263-5.465-5.984,0-6.745,2.6-10.771,1.511-6.43-1.731-1.389-3.816-14.568-3.816-6.253,0-9.974,3.456-10.365,3.456m-2.3,8.061c4.766,0,8.614-4.607,13.819-4.607,7.521,0,7.463,4.607,13.823,4.607,14.055,0,5.492-7.809,23.047,3.473,6.164,3.96,5.594,1.134,12.655,1.134,9.05,0,9.835,7.117,16.518,9.973,4.336,1.852,6.24.834,10.619,2.051,4.23,1.172,5.457,3.261,7.047,5.62,7.377,10.956,7.721,4.97,16.522,9.968,6.314,3.586,3.694,11.291,10.339,15,7.394,4.124,10.261,1.385,12.95,13.541,2.438,11.023,7.787,7.461,11.975,13.364,5.349,7.547-.763,13.3,6.7,19.787,8.944,7.773,5.226,7.706,5.226,17.807,0,9.343,6.913,8.088,6.913,16.123,0,8.449-2.3,7.052-2.3,13.821,0,3.974,4.607,7.077,4.607,12.671,0,6.114-4.607,7.7-4.607,13.82,0,9.326,2.3,5.533,2.3,11.515,0,5.948-3.706,8.026-5.941,11.352-3.66,5.448-.972,7.661-.972,13.986,0,7.742-8.374,9.787-10.591,15.9-3.648,10.068,2.905,9.592-7.837,17.5-10.132,7.461-4.242,8.567-9.8,16.693-4.422,6.465-11.014,2.759-14.757,10.582-4.7,9.82-2.659,9.517-14.131,12.357-9.117,2.259-7.026,8.169-13.281,12.058-8.66,5.383-12.2-1.527-19.411,7.078-6.636,7.919-8.512,4.577-18.456,4.577-8.085,0-6.888,6.913-14.972,6.913-8.449,0-7.052-2.3-13.821-2.3-3.974,0-7.077,4.606-12.67,4.606-7.523,0-7.461-4.606-13.822-4.606-13.674,0-5.731,7.72-23.042-3.465-6.763-4.371-6.431-1.144-13.813-1.144-7.255,0-9.861-7.973-16.044-10.443-5.972-2.391-11.178,1.039-16.541-6.5-9.531-13.385-8.724-4.981-17.677-11.116-6-4.111-3.144-11.165-10.342-14.995-9.815-5.226-9.335-1.583-12.426-14.064-2.438-9.845-8.679-7.128-12.229-13.108-4.548-7.668.955-12.809-6.26-19.082-8.941-7.771-5.226-7.706-5.226-17.807,0-9.342-6.91-8.087-6.91-16.123,0-8.449,2.3-7.052,2.3-13.821,0-3.974-4.605-7.077-4.605-12.671,0-7.522,4.605-7.46,4.605-13.819,0-14.05-7.8-5.5,3.464-23.04,4.366-6.8,1.142-6.416,1.142-13.817,0-7.44,8.048-9.609,10.2-16.294,2.955-9.2-1.622-11.09,8.161-17.176,9.928-6.174,4.718-9.526,9.7-16.792,4.1-5.975,11.523-3.237,14.931-10.407,4.657-9.8,2.708-9.556,14.13-12.359,9.263-2.272,6.887-8.521,13.115-12.223,7.9-4.694,11.846,1.385,19.415-7.074,6.857-7.657,8.874-4.42,18.617-4.42,6.068,0,8.043-6.91,14.972-6.91,8.151,0,7.363,2.3,12.671,2.3" transform="translate(1315.689 -1198.596)" fill="#054b81" fill-rule="evenodd"/>
        <path id="Trazado_946" data-name="Trazado 946" d="M-1297.37,1287.4a6.822,6.822,0,0,1,6.821,6.821,6.821,6.821,0,0,1-6.821,6.821,6.822,6.822,0,0,1-6.822-6.821,6.824,6.824,0,0,1,6.822-6.821" transform="translate(1324.462 -1130.834)" fill="#00a0e3" fill-rule="evenodd"/>
        <path id="Trazado_947" data-name="Trazado 947" d="M-1141.606,1287.4a6.824,6.824,0,0,1,6.823,6.821,6.823,6.823,0,0,1-6.823,6.821,6.821,6.821,0,0,1-6.821-6.821,6.822,6.822,0,0,1,6.821-6.821" transform="translate(1443.321 -1130.834)" fill="#00a0e3" fill-rule="evenodd"/>
        <path id="Trazado_948" data-name="Trazado 948" d="M-1062.339,1290.73l-11.849,17.41,10.913-5.589c.982-.5,1.513-.936,1.582-1.294a3.266,3.266,0,0,0-.528-1.776l-.708-1.382,3.457-1.772,5.5,10.737-3.457,1.772-.444-.869c-.439-.854-.827-1.344-1.171-1.476s-.992.049-1.939.536l-18.88,9.672-4.292-8.376,12.636-18.458-11.943,6.118c-.945.487-1.472.908-1.573,1.264a2.979,2.979,0,0,0,.5,1.82l.555,1.086-3.458,1.772-5.518-10.774,3.459-1.77.612,1.193c.441.862.843,1.359,1.2,1.492s1.007-.041,1.946-.52l13.325-6.828c.929-.474,1.442-.892,1.548-1.252a3,3,0,0,0-.513-1.858l-.614-1.2,3.458-1.772Zm-13.516-22.186-7.054,7.4-3.142-2.994a17.752,17.752,0,0,0,1.5-2.865,5.562,5.562,0,0,0,.407-2.089,4.354,4.354,0,0,0-.61-2.114,14.311,14.311,0,0,0-2.4-2.741l-.592-.563-2.546-2.426-5.192,5.444.765.728a3.238,3.238,0,0,0,2.509,1.151,5.12,5.12,0,0,0,2.749-1.8l.166-.173,2.484,2.369-8.634,9.057-2.484-2.37c1.28-1.424,1.959-2.491,2.024-3.21a3.117,3.117,0,0,0-1.268-2.394l-.793-.758-5.9,6.185,3.519,3.353a14.862,14.862,0,0,0,3.051,2.438,3.114,3.114,0,0,0,1.992.3,8.118,8.118,0,0,0,2.382-1.037,18.412,18.412,0,0,0,2.8-2.23l3.255,3.1-7.816,8.2-20.952-19.979,2.68-2.812,1,.95a3.363,3.363,0,0,0,1.518,1.005c.353.046.885-.305,1.58-1.035l.141-.148,10.333-10.836c.733-.769,1.086-1.337,1.063-1.7s-.388-.88-1.088-1.546l-.971-.927,2.682-2.81Zm-80.1-30.05q1.859-6.548,6.991-9.122t12.315-.527q7.149,2.031,10.152,6.909t1.144,11.432q-1.859,6.551-6.983,9.1t-12.329.506q-7.13-2.024-10.134-6.9t-1.155-11.4m18.179-5.633a4.257,4.257,0,0,0-4.563,1.248c-1.259,1.335-2.382,3.745-3.368,7.211q-1.5,5.3-.964,8.015a4.2,4.2,0,0,0,3.189,3.457,4.235,4.235,0,0,0,4.568-1.24q1.875-1.994,3.362-7.22c1-3.514,1.314-6.173.961-8a4.209,4.209,0,0,0-3.186-3.477m-44.314-7.246.294,3.873-.455.034a2.359,2.359,0,0,0-1.582.511,3.14,3.14,0,0,0-.234,1.964l.375,4.935,7.585-.577-.375-4.933a3.078,3.078,0,0,0-.534-1.909,2.419,2.419,0,0,0-1.654-.263l-.435.033-.294-3.873,15.168-1.155.294,3.875-1.386.1a3.032,3.032,0,0,0-1.807.506q-.378.4-.257,1.988l1.136,14.937c.081,1.068.266,1.708.557,1.939a2.967,2.967,0,0,0,1.865.242l1.386-.106.295,3.873-15.169,1.153-.294-3.872.435-.033a2.346,2.346,0,0,0,1.58-.526,3.04,3.04,0,0,0,.254-1.978l-.467-6.13-7.583.576.466,6.13a3.12,3.12,0,0,0,.536,1.92,2.316,2.316,0,0,0,1.634.279l.455-.034.294,3.872-15.168,1.155-.294-3.874,1.373-.1a3.383,3.383,0,0,0,1.79-.466c.275-.247.374-.929.287-2.059l-1.135-14.935c-.083-1.073-.268-1.715-.55-1.934a3.112,3.112,0,0,0-1.883-.219l-1.375.1-.293-3.874Zm-19.591,20.035q2.121,5.089.323,9.165-1.817,4.076-7.343,6.573-6.485,2.93-11.518,1.077t-7.913-8.225q-2.724-6.024-.746-11.278t8.02-7.985a17.348,17.348,0,0,1,3.97-1.276,14.161,14.161,0,0,1,3.935-.2l.01-1.662,4.055-1.836,4.652,10.289-4.471,2.022a12.7,12.7,0,0,0-4.366-4.325,4.882,4.882,0,0,0-4.355.009,4.45,4.45,0,0,0-2.829,3.965q-.2,2.769,2.038,7.7,2.3,5.1,4.551,6.775a4.648,4.648,0,0,0,5.032.427,5.805,5.805,0,0,0,3.322-3.687,8.6,8.6,0,0,0-.393-5.714Zm-42.879,3.514,7.056,7.4-3.144,3a17.3,17.3,0,0,0-2.791-1.633,5.5,5.5,0,0,0-2.064-.508,4.336,4.336,0,0,0-2.142.508,14.168,14.168,0,0,0-2.849,2.263l-.593.564-2.545,2.426,5.19,5.446.765-.728a3.237,3.237,0,0,0,1.269-2.451,5.109,5.109,0,0,0-1.664-2.831l-.164-.175,2.485-2.368,8.634,9.055-2.486,2.369c-1.361-1.347-2.394-2.077-3.11-2.176a3.113,3.113,0,0,0-2.452,1.153l-.793.757,5.9,6.185,3.517-3.351a14.958,14.958,0,0,0,2.581-2.932,3.119,3.119,0,0,0,.395-1.978,8.194,8.194,0,0,0-.92-2.426,18.54,18.54,0,0,0-2.095-2.909l3.255-3.1,7.817,8.2-20.955,19.974-2.682-2.808,1-.952a3.352,3.352,0,0,0,1.075-1.467c.062-.349-.263-.9-.959-1.629l-.139-.148-10.333-10.838c-.732-.769-1.283-1.148-1.645-1.143s-.894.346-1.6,1.014l-.972.926-2.68-2.812Zm-35.63,44.216,3.456,1.77-.206.408a2.345,2.345,0,0,0-.391,1.615c.114.342.633.753,1.555,1.225l4.4,2.257,3.468-6.77-4.4-2.255a3.069,3.069,0,0,0-1.9-.542c-.349.114-.714.54-1.088,1.273l-.2.388-3.456-1.77,6.936-13.538,3.458,1.772-.635,1.236a3.02,3.02,0,0,0-.511,1.807q.143.531,1.56,1.257l13.333,6.832c.95.487,1.595.665,1.944.536s.744-.615,1.18-1.463l.633-1.238,3.457,1.77-6.936,13.541-3.458-1.773.2-.386a2.353,2.353,0,0,0,.379-1.622c-.116-.356-.63-.772-1.558-1.248l-5.471-2.8-3.466,6.77,5.471,2.8a3.118,3.118,0,0,0,1.916.547c.356-.109.721-.527,1.091-1.248l.208-.408,3.459,1.772-6.937,13.537-3.456-1.768.628-1.227a3.375,3.375,0,0,0,.538-1.77c-.067-.362-.6-.8-1.606-1.319l-13.332-6.83c-.957-.49-1.6-.667-1.936-.54s-.725.624-1.169,1.49l-.628,1.227-3.458-1.773Z" transform="translate(1337.483 -1179.016)" fill="#fefefe"/>
        <path id="Trazado_949" data-name="Trazado 949" d="M-1092.738,1341.974l-3.11-2.331.741-.986a5.963,5.963,0,0,0,1.01-1.629.648.648,0,0,0-.312-.665,3.116,3.116,0,0,0-.519-.332,5.24,5.24,0,0,0-.536-.24l-2.943-.982-4.434,5.91,1.589,2.257a7.307,7.307,0,0,0,.573.8,2.709,2.709,0,0,0,.446.437c.2.146.443.127.753-.058a4.062,4.062,0,0,0,1.006-1.016l.815-1.086,3.108,2.331-7.36,9.815-3.106-2.331.608-.813a2.461,2.461,0,0,0,.522-1.8,5.378,5.378,0,0,0-.993-2.278l-12.253-18.212,5.954-7.937,20.374,7.248a5.947,5.947,0,0,0,2.7.523,2.8,2.8,0,0,0,1.385-1.13l.864-1.151,3.1,2.33Zm-9.586-8.482-8.142-2.989,5.241,6.855Zm-23.823,18.463,1.224-.867a4.643,4.643,0,0,0,2.073-2.58,3.665,3.665,0,0,0-.827-2.9,3.524,3.524,0,0,0-2.35-1.7,4.649,4.649,0,0,0-3.011,1.125l-1.342.95Zm7.117,10.041,1.435-1.016a5.106,5.106,0,0,0,2.325-2.919,4.62,4.62,0,0,0-1.1-3.413,4.176,4.176,0,0,0-2.791-1.966,5.2,5.2,0,0,0-3.5,1.213l-1.405,1Zm-8.085,10.444-2.246-3.17,1.123-.8a3.332,3.332,0,0,0,1.276-1.3c.111-.337-.127-.92-.709-1.744l-.118-.165-8.662-12.22c-.615-.869-1.105-1.324-1.464-1.372a3.037,3.037,0,0,0-1.724.772l-1.095.778-2.248-3.17,13.479-9.552c2.918-2.068,5.363-3.168,7.329-3.283a5.339,5.339,0,0,1,4.875,2.542,5.732,5.732,0,0,1,1.084,4.052,9.218,9.218,0,0,1-1.967,4.51,10.7,10.7,0,0,1,5.781-1.04,6,6,0,0,1,4.02,2.655q2.33,3.287,1.051,6.34t-6.67,6.866Zm-36.217-.206q-2.433-6.361.134-11.493t9.545-7.8q6.94-2.655,12.267-.548t7.765,8.469q2.433,6.361-.143,11.467t-9.57,7.791q-6.921,2.65-12.248.543t-7.75-8.431m11.183-15.4a4.253,4.253,0,0,0-2.907,3.73q-.309,2.737,1.624,7.792,1.97,5.147,4.029,7a4.208,4.208,0,0,0,4.626.857,4.239,4.239,0,0,0,2.913-3.729q.307-2.722-1.633-7.8-1.957-5.115-4.018-6.976a4.2,4.2,0,0,0-4.634-.876m-29.373,26.226,2.16-.076a4.543,4.543,0,0,0,4.191-2.383q1.219-2.282,1.031-7.53t-1.558-7.447a4.561,4.561,0,0,0-4.349-2.091l-2.158.078Zm1.333-23.49q8.225-.294,12.324,2.939t4.349,10.178q.246,6.968-3.627,10.487t-12.078,3.815l-14.909.527-.136-3.884,1.375-.047a3.352,3.352,0,0,0,1.779-.384c.279-.221.4-.839.365-1.846l-.007-.2-.527-14.963c-.037-1.063-.2-1.719-.471-1.955a3.04,3.04,0,0,0-1.867-.3l-1.342.048-.138-3.882Zm-34.233,6.594,2.318.644a5.894,5.894,0,0,0,3.644.171,3.237,3.237,0,0,0,1.716-2.333,3.756,3.756,0,0,0-.131-3.07,5.087,5.087,0,0,0-2.993-1.7l-2.606-.725Zm-11.307,7.1,4.008-14.434c.286-1.03.33-1.7.139-2a3.047,3.047,0,0,0-1.693-.852l-1.328-.368,1.035-3.73,18.2,5.053q4.824,1.341,6.742,3.634a5.813,5.813,0,0,1,1,5.61,5.4,5.4,0,0,1-2.5,3.346,8.068,8.068,0,0,1-4.709.934c1.74.716,2.8,1.606,3.2,2.655s.148,3.159-.725,6.3a5.859,5.859,0,0,0-.31,2.036.853.853,0,0,0,.649.772.9.9,0,0,0,.982-.455,6.361,6.361,0,0,0,.825-1.971c.025-.092.057-.238.1-.451s.08-.36.109-.466l2.678.742c-.032.118-.073.292-.129.538s-.094.412-.125.532q-1.026,3.692-3.011,4.935t-5.365.3q-3.6-1-4.825-2.953t-.326-5.224l.615-2.213q.736-2.652.231-3.565c-.331-.608-1.236-1.121-2.713-1.53l-2.37-.657-1.643,5.915q-.431,1.547-.137,2.021a2.936,2.936,0,0,0,1.664.859l1.5.418-1.038,3.743-15.917-4.42,1.039-3.743,1.326.369a3.007,3.007,0,0,0,1.888.129q.495-.257.924-1.8m-9.873-33.972,8.424-1.655a9.252,9.252,0,0,1,2.387-.247,2.914,2.914,0,0,1,1.486.534,2.181,2.181,0,0,1,.941,1.484,2.248,2.248,0,0,1-.425,1.709,2.028,2.028,0,0,1-1.2.806,5.324,5.324,0,0,1-2.024,0l-7.62-1.224Zm-18.919,6.788q3.956-5.54,9.656-6.236t11.771,3.65q6.048,4.321,7.234,9.925t-2.771,11.149q-3.959,5.543-9.638,6.215t-11.781-3.673q-6.032-4.311-7.216-9.912t2.747-11.118m19.014.816a4.252,4.252,0,0,0-4.716-.361q-2.452,1.25-5.6,5.656-3.2,4.488-3.609,7.221a4.209,4.209,0,0,0,1.841,4.332,4.237,4.237,0,0,0,4.718.369q2.436-1.248,5.6-5.666,3.184-4.456,3.6-7.2a4.2,4.2,0,0,0-1.829-4.346m-20.839,1.389q-4.3,3.454-8.715,2.856t-8.355-5.226q-4.615-5.414-4.235-10.764t5.7-9.887q5.033-4.292,10.626-3.85t9.9,5.485a17.5,17.5,0,0,1,2.331,3.457,14.41,14.41,0,0,1,1.28,3.727l1.6-.453,2.888,3.385-8.593,7.329-3.184-3.732a12.7,12.7,0,0,0,2.943-5.393,4.9,4.9,0,0,0-1.22-4.184,4.451,4.451,0,0,0-4.594-1.615q-2.713.582-6.832,4.1-4.255,3.626-5.243,6.254a4.65,4.65,0,0,0,.987,4.951,5.8,5.8,0,0,0,4.466,2.167,8.622,8.622,0,0,0,5.381-1.964Z" transform="translate(1344.693 -1105.32)" fill="#fefefe"/>
        <path id="Trazado_950" data-name="Trazado 950" d="M-1208.074,1259.082c19.053,0,34.5.541,34.5,1.209s-15.446,1.212-34.5,1.212-34.5-.542-34.5-1.212,15.444-1.209,34.5-1.209" transform="translate(1371.483 -1152.441)" fill="#00a0e3" fill-rule="evenodd"/>
        <path id="Trazado_951" data-name="Trazado 951" d="M-1203.032,1263.545c23.733,0,42.971.543,42.971,1.21s-19.238,1.209-42.971,1.209-42.971-.541-42.971-1.209,19.239-1.21,42.971-1.21" transform="translate(1368.864 -1149.036)" fill="#00a0e3" fill-rule="evenodd"/>
        <path id="Trazado_952" data-name="Trazado 952" d="M-1199.846,1267.321c27.574,0,49.932.542,49.932,1.21s-22.357,1.211-49.933,1.211-49.932-.543-49.932-1.211,22.357-1.21,49.933-1.21" transform="translate(1365.982 -1146.154)" fill="#00a0e3" fill-rule="evenodd"/>
        <path id="Trazado_953" data-name="Trazado 953" d="M-1197.391,1271.784c31.587,0,57.194.543,57.194,1.209s-25.607,1.211-57.194,1.209-57.194-.541-57.194-1.209,25.605-1.209,57.194-1.209" transform="translate(1362.315 -1142.749)" fill="#00a0e3" fill-rule="evenodd"/>
        <path id="Trazado_954" data-name="Trazado 954" d="M-1195.075,1277.276c34.764,0,62.945.541,62.945,1.211s-28.181,1.209-62.945,1.209-62.943-.543-62.943-1.209,28.181-1.211,62.943-1.211" transform="translate(1359.696 -1138.558)" fill="#00a0e3" fill-rule="evenodd"/>
        <path id="Trazado_955" data-name="Trazado 955" d="M-1193.381,1283.112c36.268,0,65.669.541,65.669,1.211s-29.4,1.208-65.669,1.208-65.667-.541-65.667-1.208,29.4-1.211,65.667-1.211" transform="translate(1358.91 -1134.105)" fill="#00a0e3" fill-rule="evenodd"/>
        <path id="Trazado_956" data-name="Trazado 956" d="M-1192.455,1288.6c38.107,0,69,.543,69,1.211s-30.889,1.209-69,1.209-69-.541-69-1.209,30.891-1.211,69-1.211" transform="translate(1357.076 -1129.914)" fill="#00a0e3" fill-rule="evenodd"/>
        <path id="Trazado_957" data-name="Trazado 957" d="M-1207.634,1325.864c19.053,0,34.5-.541,34.5-1.209s-15.445-1.211-34.5-1.211-34.5.543-34.5,1.211,15.445,1.209,34.5,1.209" transform="translate(1371.818 -1103.329)" fill="#00a0e3" fill-rule="evenodd"/>
        <path id="Trazado_958" data-name="Trazado 958" d="M-1202.594,1321.4c23.733,0,42.971-.541,42.971-1.209s-19.239-1.211-42.971-1.211-42.971.543-42.971,1.211,19.239,1.209,42.971,1.209" transform="translate(1369.198 -1106.735)" fill="#00a0e3" fill-rule="evenodd"/>
        <path id="Trazado_959" data-name="Trazado 959" d="M-1199.41,1317.623c27.576,0,49.932-.54,49.932-1.208s-22.356-1.211-49.932-1.211-49.931.543-49.931,1.211,22.355,1.208,49.931,1.208" transform="translate(1366.317 -1109.616)" fill="#00a0e3" fill-rule="evenodd"/>
        <path id="Trazado_960" data-name="Trazado 960" d="M-1196.953,1313.161c31.587,0,57.2-.541,57.2-1.208s-25.607-1.212-57.2-1.212-57.194.542-57.194,1.212,25.6,1.208,57.194,1.208" transform="translate(1362.649 -1113.021)" fill="#00a0e3" fill-rule="evenodd"/>
        <path id="Trazado_961" data-name="Trazado 961" d="M-1194.635,1307.669c34.763,0,62.943-.541,62.943-1.211s-28.181-1.21-62.943-1.21-62.945.541-62.945,1.21,28.183,1.211,62.945,1.211" transform="translate(1360.03 -1117.213)" fill="#00a0e3" fill-rule="evenodd"/>
        <path id="Trazado_962" data-name="Trazado 962" d="M-1192.941,1301.833c36.266,0,65.667-.541,65.667-1.21s-29.4-1.211-65.667-1.211-65.669.545-65.669,1.211,29.4,1.21,65.669,1.21" transform="translate(1359.244 -1121.666)" fill="#00a0e3" fill-rule="evenodd"/>
        <path id="Trazado_963" data-name="Trazado 963" d="M-1192.016,1296.342c38.1,0,69-.541,69-1.211s-30.891-1.209-69-1.209-69,.541-69,1.209,30.891,1.211,69,1.211" transform="translate(1357.411 -1125.857)" fill="#00a0e3" fill-rule="evenodd"/>
        <path id="Trazado_964" data-name="Trazado 964" d="M-1216.043,1254.694c9.829,0,17.8.542,17.8,1.209s-7.969,1.209-17.8,1.209-17.8-.541-17.8-1.209,7.968-1.209,17.8-1.209" transform="translate(1378.146 -1155.789)" fill="#00a0e3" fill-rule="evenodd"/>
        <path id="Trazado_965" data-name="Trazado 965" d="M-1216.043,1327.842c9.829,0,17.8.543,17.8,1.209s-7.969,1.21-17.8,1.21-17.8-.541-17.8-1.21,7.968-1.209,17.8-1.209" transform="translate(1378.146 -1099.973)" fill="#00a0e3" fill-rule="evenodd"/>
        <path id="Trazado_966" data-name="Trazado 966" d="M-1226.882,1263.493l.178,1.44a2.4,2.4,0,0,1-.5,1.784l-2.378,3.02a2.381,2.381,0,0,1-.913.711l-1.784.793a2.368,2.368,0,0,0-.964.78l-1.347,1.837a2.419,2.419,0,0,0-.337.649l-4.991,14.725a2.4,2.4,0,0,0-.125.843l.4,13.816a2.412,2.412,0,0,0,1.315,2.079l5.668,2.879a2.4,2.4,0,0,1,1.236,1.53l.513,1.929a2.409,2.409,0,0,0,2.328,1.792,2.407,2.407,0,0,1,2.394,2.667l-1.267,11.775a2.412,2.412,0,0,1-.39,1.08l-.543.811a2.418,2.418,0,0,0-.4,1.41l.943,31.02a2.41,2.41,0,0,0,2.424,2.338l22.387-.162a2.408,2.408,0,0,0,2.391-2.357l.159-7.336a2.408,2.408,0,0,1,2.292-2.352l4.513-.221a2.4,2.4,0,0,0,1.887-1.07l17.056-25.566a2.409,2.409,0,0,0-.367-3.107l-1.777-1.641a2.425,2.425,0,0,1-.769-1.612l-.31-4.758a2.4,2.4,0,0,0-.717-1.564l-1.982-1.941a2.416,2.416,0,0,1-.718-1.583l-.465-8.205,1.62-1.036,2.911-15.8a2.412,2.412,0,0,0-.2-1.495l-2.854-5.838a2.408,2.408,0,0,0-2.061-1.349l-2.523-.109a2.411,2.411,0,0,1-2.292-2.149l-.3-2.847a2.416,2.416,0,0,0-.337-.994l-2.272-3.74a2.406,2.406,0,0,0-1.619-1.115l-10.085-1.878-.323-1.229-7.2.39a2.376,2.376,0,0,1-1.266-.282l-4.681-2.507a2.4,2.4,0,0,0-1.532-.252l-8.024,1.333a2.409,2.409,0,0,0-2,2.671" transform="translate(1373.41 -1152.155)" fill="#00a0e3"/>
      </g>
      <g id="Grupo_254" data-name="Grupo 254">
        <path id="Trazado_967" data-name="Trazado 967" d="M-1302.384,1348.675l3.963-2.519.707,1.113-10.843,6.89-2.132-3.355c-1.13-1.777-1.077-4.048.908-5.308l.753-.48c2-1.273,4.089-.361,5.219,1.417Zm-5.927,3.766,4.974-3.161-1.374-2.161a2.5,2.5,0,0,0-3.693-.947l-.586.37a2.493,2.493,0,0,0-.694,3.738Z" transform="translate(1339.192 -1067.045)" fill="#054b81"/>
        <path id="Trazado_968" data-name="Trazado 968" d="M-1313.971,1346.744c-1.017-1.843-.834-4.1,1.208-5.228l.672-.37a3.42,3.42,0,0,1,4.358.788l3.1-4.841.714,1.294-3.027,4.641,1.275,2.306,4.283-2.364.636,1.153-11.238,6.207Zm2.331,1.886,4.987-2.756-1.3-2.348a2.483,2.483,0,0,0-3.6-1.185l-.49.27a2.471,2.471,0,0,0-.9,3.669Z" transform="translate(1336.793 -1072.637)" fill="#054b81"/>
        <path id="Trazado_969" data-name="Trazado 969" d="M-1317.013,1340.553c-1.061-2.248-.635-4.746,1.8-5.9l4.461-2.105c2.438-1.149,4.636.11,5.7,2.357s.639,4.755-1.8,5.9l-4.461,2.107C-1313.748,1344.068-1315.948,1342.81-1317.013,1340.553Zm9.5-.889a2.933,2.933,0,0,0,1.4-4.259,2.938,2.938,0,0,0-4.177-1.625l-4.272,2.016a2.936,2.936,0,0,0-1.4,4.258,2.933,2.933,0,0,0,4.177,1.627Z" transform="translate(1334.515 -1076.434)" fill="#054b81"/>
        <path id="Trazado_970" data-name="Trazado 970" d="M-1309.411,1326.036a8.88,8.88,0,0,1,2.015,3.1c.922,2.327.266,4.813-2.238,5.806l-4.339,1.721c-2.6,1.031-4.806-.358-5.806-2.879a8.3,8.3,0,0,1-.6-3.313l1.146-.129a8.832,8.832,0,0,0,.555,2.891c.822,2.073,2.44,2.911,4.318,2.165l4.152-1.646c1.878-.746,2.384-2.375,1.615-4.314a7.593,7.593,0,0,0-1.1-1.93l-4.381,1.738-.466-1.172Z" transform="translate(1332.36 -1081.074)" fill="#054b81"/>
        <path id="Trazado_971" data-name="Trazado 971" d="M-1321.89,1327.994c-.655-2-.056-4.184,2.16-4.91l.73-.24a3.417,3.417,0,0,1,4.134,1.587l3.948-4.18.46,1.4-3.836,4,.821,2.506,4.65-1.527.411,1.252-12.2,4Zm1.939,2.288,5.415-1.779-.837-2.55a2.482,2.482,0,0,0-3.316-1.835l-.533.174a2.473,2.473,0,0,0-1.566,3.438Z" transform="translate(1331.018 -1085.489)" fill="#054b81"/>
        <path id="Trazado_972" data-name="Trazado 972" d="M-1312.218,1315.211l-2.973,1.913,1.361,5.215,3.528.217.353,1.349-13.507-.878-.469-1.8,11.356-7.364Zm-2.814,7.068-1.178-4.517-6.358,4.081Z" transform="translate(1329.657 -1090.364)" fill="#054b81"/>
        <path id="Trazado_973" data-name="Trazado 973" d="M-1323.655,1309.432l9.564,2.433.167.914-8.094,5.64,10.434-1.9.231,1.269-12.636,2.3-.284-1.557,8.51-5.89-10.042-2.52-.284-1.558,12.636-2.3.231,1.268Z" transform="translate(1328.007 -1096.163)" fill="#054b81"/>
        <path id="Trazado_974" data-name="Trazado 974" d="M-1314.188,1300.758l-3.224,1.448.564,5.358,3.456.743.146,1.385-13.219-2.888-.2-1.85,12.327-5.582Zm-3.838,6.568-.49-4.64-6.9,3.082Z" transform="translate(1327.569 -1101.421)" fill="#054b81"/>
        <path id="Trazado_975" data-name="Trazado 975" d="M-1327.1,1299.816l-.07-3.935c-.044-2.467,1.493-4.572,3.939-4.615l4.8-.087c2.692-.048,4.059,2,4.1,4.471l.07,3.935Zm1.06-3.851.046,2.513,10.582-.191-.044-2.514c-.039-2.086-1.171-3.318-3.057-3.283l-4.589.083C-1324.853,1292.6-1326.083,1293.878-1326.045,1295.965Z" transform="translate(1327.176 -1107.673)" fill="#054b81"/>
        <path id="Trazado_976" data-name="Trazado 976" d="M-1327.17,1292.378l.3-7.124,1.174.049-.242,5.8,4.586.19.234-5.608,1.174.049-.235,5.609,4.718.2.252-6,1.174.047-.307,7.334Z" transform="translate(1327.181 -1112.193)" fill="#054b81"/>
        <path id="Trazado_977" data-name="Trazado 977" d="M-1315.139,1285.87l.534-5.607,1.181.111-.659,6.92-12.781-1.216.124-1.313Z" transform="translate(1327.415 -1116.001)" fill="#054b81"/>
        <path id="Trazado_978" data-name="Trazado 978" d="M-1312.691,1273.448a8.871,8.871,0,0,1,.091,3.7c-.436,2.465-2.3,4.236-4.949,3.77l-4.6-.81c-2.756-.485-3.9-2.826-3.433-5.5a8.255,8.255,0,0,1,1.227-3.135l1.04.492a8.934,8.934,0,0,0-1.043,2.752c-.386,2.2.552,3.757,2.54,4.108l4.4.774c1.99.351,3.275-.771,3.637-2.824a7.6,7.6,0,0,0,.074-2.221l-4.643-.818.219-1.243Z" transform="translate(1328.318 -1122.711)" fill="#054b81"/>
        <path id="Trazado_979" data-name="Trazado 979" d="M-1324.289,1268.817c.583-2.417,2.482-4.1,5.1-3.463l4.8,1.156c2.62.633,3.543,2.992,2.96,5.409s-2.484,4.1-5.1,3.473l-4.794-1.158C-1323.95,1273.6-1324.874,1271.243-1324.289,1268.817Zm7.96,5.27a2.934,2.934,0,0,0,3.761-2.44,2.938,2.938,0,0,0-2.232-3.887l-4.594-1.107a2.935,2.935,0,0,0-3.759,2.438,2.934,2.934,0,0,0,2.234,3.887Z" transform="translate(1329.251 -1127.481)" fill="#054b81"/>
        <path id="Trazado_980" data-name="Trazado 980" d="M-1310.833,1269.492l-12.271-3.8,1.208-3.888c.709-2.292,2.253-3.075,4.239-2.459a2.851,2.851,0,0,1,2.142,2.7,3.243,3.243,0,0,1,3.667-1.446l.072.023c2.184.677,2.87,2.657,2.17,4.913ZM-1318,1260.6c-1.37-.425-2.375.1-2.856,1.649l-.777,2.509,4.323,1.342.8-2.585A2.082,2.082,0,0,0-1318,1260.6Zm2.482,3.332-.769,2.482,4.766,1.479.793-2.556c.527-1.7-.005-3.031-1.564-3.514C-1313.832,1261.35-1315,1262.269-1315.518,1263.937Z" transform="translate(1330.284 -1132.121)" fill="#054b81"/>
        <path id="Trazado_981" data-name="Trazado 981" d="M-1308.632,1260.532l-.444,1.241-12.1-4.335.444-1.242Z" transform="translate(1331.757 -1134.365)" fill="#054b81"/>
        <path id="Trazado_982" data-name="Trazado 982" d="M-1320.18,1257.053l2.682-6.61,1.089.443-2.183,5.379,4.255,1.726,2.112-5.2,1.087.443-2.11,5.2,4.376,1.777,2.262-5.573,1.089.442-2.761,6.8Z" transform="translate(1332.515 -1138.756)" fill="#054b81"/>
        <path id="Trazado_983" data-name="Trazado 983" d="M-1316.2,1247.83c.9-1.9,2.842-3.07,4.951-2.07l.693.33a3.419,3.419,0,0,1,1.9,4l5.741-.308-.635,1.337-5.532.248-1.132,2.382,4.42,2.1-.564,1.19-11.6-5.506Zm-.171,2.994,5.146,2.444,1.151-2.424a2.481,2.481,0,0,0-1.139-3.616l-.5-.24a2.473,2.473,0,0,0-3.5,1.412Z" transform="translate(1334.209 -1142.608)" fill="#054b81"/>
        <path id="Trazado_984" data-name="Trazado 984" d="M-1302.065,1244.781l-9.218-5.171.645-1.151,11.2,6.287-.691,1.232-12.3.351,9.207,5.167-.645,1.149-11.2-6.285.691-1.233Z" transform="translate(1336.415 -1147.901)" fill="#054b81"/>
        <path id="Trazado_985" data-name="Trazado 985" d="M-1309.778,1235.486c1.363-2.077,3.715-3.019,5.967-1.541l4.124,2.7c2.253,1.477,2.327,4.011.964,6.088s-3.72,3.027-5.971,1.55l-4.124-2.7C-1311.07,1240.1-1311.146,1237.572-1309.778,1235.486Zm5.718,7.641a2.934,2.934,0,0,0,4.362-1.032,2.936,2.936,0,0,0-.793-4.409l-3.949-2.59a2.938,2.938,0,0,0-4.362,1.03,2.934,2.934,0,0,0,.795,4.411Z" transform="translate(1339.762 -1151.894)" fill="#054b81"/>
        <path id="Trazado_986" data-name="Trazado 986" d="M-1305.883,1230.745l2.447-3.078c1.534-1.93,4.058-2.575,5.973-1.054l3.755,2.987c2.107,1.675,1.855,4.126.321,6.054l-2.449,3.08Zm3.265-2.3-1.562,1.968,8.281,6.583,1.564-1.968c1.3-1.632,1.208-3.3-.27-4.476l-3.59-2.855C-1299.56,1226.616-1301.318,1226.817-1302.618,1228.449Z" transform="translate(1343.425 -1157.585)" fill="#054b81"/>
        <path id="Trazado_987" data-name="Trazado 987" d="M-1301.585,1225.557l4.815-5.266.867.795-3.918,4.284,3.389,3.1,3.791-4.145.867.794-3.791,4.147,3.487,3.188,4.06-4.438.867.793-4.956,5.42Z" transform="translate(1346.704 -1161.765)" fill="#054b81"/>
        <path id="Trazado_988" data-name="Trazado 988" d="M-1282.615,1223.179a8.015,8.015,0,0,1-1.9,2.63,4.2,4.2,0,0,1-6.063.037l-3.3-3.468a4.187,4.187,0,0,1,.266-6.157,7.383,7.383,0,0,1,2.541-1.594l.6,1.028a7.62,7.62,0,0,0-2.29,1.446,2.985,2.985,0,0,0-.09,4.445l3.165,3.323a2.964,2.964,0,0,0,4.44-.051,8.693,8.693,0,0,0,1.706-2.292Z" transform="translate(1351.651 -1166.085)" fill="#054b81"/>
        <path id="Trazado_989" data-name="Trazado 989" d="M-1291.134,1213.217l.377-3.931,1.259.151-.711,3.905Zm2.052.326c1.9-1.6,4.42-1.838,6.16.218l3.184,3.766c1.739,2.057,1.09,4.506-.808,6.111s-4.427,1.843-6.165-.213l-3.186-3.766C-1291.635,1217.6-1290.986,1215.154-1289.082,1213.543Zm3.309,8.951a2.933,2.933,0,0,0,4.474.252,2.937,2.937,0,0,0,.494-4.454l-3.05-3.605a2.937,2.937,0,0,0-4.473-.254,2.935,2.935,0,0,0-.5,4.455Z" transform="translate(1354.679 -1170.163)" fill="#054b81"/>
        <path id="Trazado_990" data-name="Trazado 990" d="M-1283.065,1207.907c1.691-1.255,3.954-1.375,5.344.5l.458.617a3.421,3.421,0,0,1-.2,4.426l5.215,2.428-1.188.882-5-2.382-2.12,1.571,2.918,3.932-1.06.786-7.655-10.315Zm-1.559,2.563,3.4,4.579,2.155-1.6a2.481,2.481,0,0,0,.694-3.729l-.333-.45a2.475,2.475,0,0,0-3.759-.4Z" transform="translate(1358.324 -1171.923)" fill="#054b81"/>
        <path id="Trazado_991" data-name="Trazado 991" d="M-1281.012,1206.314l3.307-2.133c2.072-1.334,4.669-1.137,5.995.919l2.6,4.032c1.458,2.264.432,4.5-1.64,5.841l-3.308,2.131Zm3.831-1.128-2.112,1.363,5.734,8.893,2.112-1.361c1.753-1.131,2.2-2.742,1.181-4.327l-2.488-3.858C-1273.7,1204.432-1275.428,1204.056-1277.181,1205.186Z" transform="translate(1362.403 -1174.703)" fill="#054b81"/>
        <path id="Trazado_992" data-name="Trazado 992" d="M-1272.165,1200.473c2.174-1.208,4.693-.947,6,1.407l2.4,4.313c1.308,2.355.2,4.631-1.977,5.838s-4.7.952-6.008-1.4l-2.4-4.312C-1275.455,1203.96-1274.344,1201.684-1272.165,1200.473Zm1.515,9.424a2.932,2.932,0,0,0,4.341,1.114,2.937,2.937,0,0,0,1.347-4.274l-2.294-4.129a2.938,2.938,0,0,0-4.341-1.116,2.934,2.934,0,0,0-1.347,4.275Z" transform="translate(1367.213 -1177.426)" fill="#054b81"/>
        <path id="Trazado_993" data-name="Trazado 993" d="M-1263.665,1210.684l-5.511-11.6,3.678-1.747c2.167-1.03,3.789-.425,4.681,1.453a2.853,2.853,0,0,1-.536,3.406,3.236,3.236,0,0,1,3.547,1.719l.033.069c.98,2.065-.012,3.912-2.147,4.926Zm1.686-11.294c-.616-1.294-1.682-1.68-3.147-.984l-2.373,1.127,1.939,4.089,2.444-1.16A2.085,2.085,0,0,0-1261.979,1199.39Zm-.771,4.085-2.35,1.114,2.142,4.51,2.418-1.15c1.611-.765,2.226-2.056,1.527-3.53C-1259.7,1202.964-1261.173,1202.726-1262.75,1203.475Z" transform="translate(1371.435 -1179.663)" fill="#054b81"/>
        <path id="Trazado_994" data-name="Trazado 994" d="M-1252.722,1205.3l-2.269-2.706-5,2,.228,3.524-1.294.519-.823-13.5,1.726-.691,8.726,10.331Zm-7.359-1.9,4.328-1.735-4.841-5.79Z" transform="translate(1377.003 -1181.486)" fill="#054b81"/>
        <path id="Trazado_995" data-name="Trazado 995" d="M-1251.181,1200.239l1.367,4.494-1.263.382-3.736-12.292,3.8-1.155c2.016-.614,4.189.044,4.873,2.3l.259.853c.689,2.269-.747,4.036-2.762,4.647Zm-2.042-6.719,1.714,5.638,2.451-.744a2.5,2.5,0,0,0,1.9-3.306l-.2-.661a2.491,2.491,0,0,0-3.413-1.672Z" transform="translate(1382.395 -1183.771)" fill="#054b81"/>
        <path id="Trazado_996" data-name="Trazado 996" d="M-1239.375,1201.721l-1.858-3.006-5.236,1.262-.282,3.523-1.356.326,1.13-13.482,1.807-.436,7.149,11.487Zm-7.013-2.944,4.536-1.093-3.96-6.43Z" transform="translate(1387.511 -1184.948)" fill="#054b81"/>
        <path id="Trazado_997" data-name="Trazado 997" d="M-1238.511,1188.682c2.074-.365,4.149.541,4.552,2.839l.132.756a3.414,3.414,0,0,1-2.16,3.863l3.574,4.5-1.456.257-3.4-4.367-2.6.457.846,4.816-1.3.228-2.224-12.639Zm-2.539,1.592.988,5.611,2.641-.465a2.483,2.483,0,0,0,2.29-3.02l-.1-.552a2.472,2.472,0,0,0-3.179-2.038Z" transform="translate(1391.757 -1185.944)" fill="#054b81"/>
        <path id="Trazado_998" data-name="Trazado 998" d="M-1227.158,1200.138l-1.465-3.216-5.356.6-.721,3.461-1.386.155,2.809-13.241,1.848-.206,5.659,12.294Zm-6.59-3.8,4.639-.518-3.126-6.878Z" transform="translate(1396.684 -1186.642)" fill="#054b81"/>
        <path id="Trazado_999" data-name="Trazado 999" d="M-1218.713,1199.879l-1.185-3.328-5.384.137-1.014,3.385-1.393.036,3.926-12.944,1.859-.046,4.586,12.724Zm-6.239-4.346,4.665-.12-2.526-7.116Z" transform="translate(1403.092 -1187.077)" fill="#054b81"/>
        <path id="Trazado_1000" data-name="Trazado 1000" d="M-1219.325,1198.793l5.633.183-.039,1.185-6.952-.225.418-12.841,1.317.042Z" transform="translate(1408.438 -1187.095)" fill="#054b81"/>
        <path id="Trazado_1001" data-name="Trazado 1001" d="M-1214.56,1187.328l7.105.61-.1,1.171-5.782-.5-.393,4.573,5.594.481-.1,1.171-5.592-.48-.406,4.706,5.991.515-.1,1.171-7.313-.628Z" transform="translate(1412.271 -1186.917)" fill="#054b81"/>
        <path id="Trazado_1002" data-name="Trazado 1002" d="M-1202.357,1199.452-1200.8,1189l1.3.194-1.89,12.705-1.4-.208-4.706-11.375-1.553,10.445-1.3-.194,1.89-12.7,1.4.208Z" transform="translate(1416.324 -1186.51)" fill="#054b81"/>
        <path id="Trazado_1003" data-name="Trazado 1003" d="M-1199.143,1190.834l-3.766-.806.247-1.15,8.819,1.885-.246,1.151-3.755-.8-2.44,11.405-1.3-.278Z" transform="translate(1422.001 -1185.733)" fill="#054b81"/>
        <path id="Trazado_1004" data-name="Trazado 1004" d="M-1190.767,1204.262l-.178-3.53-5.2-1.416-1.943,2.952-1.347-.367,7.484-11.271,1.793.488.736,13.509Zm-4.729-5.957,4.5,1.227-.374-7.544Z" transform="translate(1424.651 -1184.397)" fill="#054b81"/>
        <path id="Trazado_1005" data-name="Trazado 1005" d="M-1184.665,1193.352c1.993.679,3.375,2.473,2.622,4.681l-.249.727a3.42,3.42,0,0,1-3.755,2.347l.962,5.668-1.4-.478-.877-5.469-2.5-.851-1.579,4.631-1.247-.425,4.143-12.155Zm-3,.171-1.839,5.393,2.539.868a2.484,2.484,0,0,0,3.464-1.545l.18-.531a2.472,2.472,0,0,0-1.8-3.32Z" transform="translate(1429.801 -1183.331)" fill="#054b81"/>
        <path id="Trazado_1006" data-name="Trazado 1006" d="M-1179.618,1195.153l6.534,2.862-.473,1.077-5.317-2.329-1.841,4.205,5.143,2.253-.471,1.077-5.143-2.253-1.9,4.326,5.508,2.412-.473,1.077-6.724-2.944Z" transform="translate(1435.842 -1180.946)" fill="#054b81"/>
        <path id="Trazado_1007" data-name="Trazado 1007" d="M-1178.183,1208.514l5.035,2.532-.532,1.06-6.211-3.125,5.767-11.476,1.179.592Z" transform="translate(1439.564 -1179.151)" fill="#054b81"/>
        <path id="Trazado_1008" data-name="Trazado 1008" d="M-1167.517,1215.057a8.042,8.042,0,0,1-3.039-1.137,4.2,4.2,0,0,1-1.636-5.845l2.477-4.1a4.189,4.189,0,0,1,6.014-1.368,7.367,7.367,0,0,1,2.209,2.033l-.834.848a7.6,7.6,0,0,0-2-1.828,2.986,2.986,0,0,0-4.314,1.086l-2.375,3.932a2.966,2.966,0,0,0,1.222,4.273,8.689,8.689,0,0,0,2.662,1.042Z" transform="translate(1444.977 -1175.81)" fill="#054b81"/>
        <path id="Trazado_1009" data-name="Trazado 1009" d="M-1158.619,1205.852c2.047,1.411,2.934,3.784,1.4,6l-2.8,4.062c-1.529,2.218-4.064,2.234-6.109.825s-2.941-3.789-1.414-6.009l2.8-4.062C-1163.207,1204.453-1160.673,1204.437-1158.619,1205.852Zm-7.77,5.543a2.933,2.933,0,0,0,.929,4.385,2.936,2.936,0,0,0,4.427-.693l2.681-3.889a2.939,2.939,0,0,0-.929-4.385,2.934,2.934,0,0,0-4.429.693Z" transform="translate(1448.406 -1173.523)" fill="#054b81"/>
        <path id="Trazado_1010" data-name="Trazado 1010" d="M-1156.185,1221.261l6.564-8.274,1.033.818-7.978,10.056-1.107-.876,1.6-12.2-6.557,8.267-1.033-.82,7.978-10.057,1.107.878Z" transform="translate(1451.949 -1171.006)" fill="#054b81"/>
        <path id="Trazado_1011" data-name="Trazado 1011" d="M-1156.248,1223.973a9.7,9.7,0,0,1-2.21-2.856l.975-.716a9.766,9.766,0,0,0,1.962,2.579c1.358,1.241,2.558,1.672,3.711.411.917-1,.878-1.872-.009-3.364l-.943-1.6a3.192,3.192,0,0,1,.638-4.046c1.306-1.428,3.422-1.435,5.137.134a9.206,9.206,0,0,1,2.023,2.571l-.956.734a8.74,8.74,0,0,0-1.823-2.336c-1.2-1.094-2.461-1.26-3.422-.212a2.089,2.089,0,0,0-.266,2.908l.945,1.6c1.031,1.753.938,3.094-.337,4.487C-1152.354,1225.941-1154.269,1225.786-1156.248,1223.973Z" transform="translate(1455.92 -1167.077)" fill="#054b81"/>
        <path id="Trazado_1012" data-name="Trazado 1012" d="M-1139.794,1222.86l-6.446,6.366c-1.742,1.72-4.136,1.471-5.924-.339s-2.006-4.206-.265-5.925l6.448-6.368.928.94-6.436,6.352a2.8,2.8,0,0,0,.157,4.182,2.794,2.794,0,0,0,4.171.2l6.434-6.352Z" transform="translate(1459.607 -1164.585)" fill="#054b81"/>
        <path id="Trazado_1013" data-name="Trazado 1013" d="M-1135.008,1231.152l-9.5,2.666-.6-.709,4.2-8.924-8.089,6.855-.834-.984,9.794-8.3,1.024,1.208-4.431,9.348,9.954-2.829,1.024,1.208-9.8,8.3-.832-.984Z" transform="translate(1462.502 -1160.647)" fill="#054b81"/>
        <path id="Trazado_1014" data-name="Trazado 1014" d="M-1132.068,1231.358c1.458,2.014,1.5,4.547-.677,6.13l-4,2.895c-2.182,1.583-4.577.753-6.035-1.26s-1.509-4.554.672-6.135l3.994-2.9C-1135.929,1228.509-1133.533,1229.339-1132.068,1231.358Zm-9.179,2.636a2.936,2.936,0,0,0-.585,4.445,2.94,2.94,0,0,0,4.408.823l3.826-2.773a2.938,2.938,0,0,0,.585-4.444,2.935,2.935,0,0,0-4.407-.825Z" transform="translate(1467.091 -1154.918)" fill="#054b81"/>
        <path id="Trazado_1015" data-name="Trazado 1015" d="M-1128.367,1236.573l2.006,3.383c1.257,2.121.964,4.709-1.141,5.958l-4.125,2.447c-2.315,1.373-4.517.264-5.774-1.856l-2.006-3.383Zm.984,3.87-1.281-2.161-9.1,5.4,1.281,2.159c1.065,1.8,2.657,2.306,4.279,1.342l3.947-2.341C-1126.757,1243.952-1126.32,1242.236-1127.383,1240.443Z" transform="translate(1470.456 -1149.34)" fill="#054b81"/>
        <path id="Trazado_1016" data-name="Trazado 1016" d="M-1124.808,1242.448l3.262,6.345-1.046.538-2.655-5.164-4.083,2.1,2.569,4.994-1.045.538-2.571-4.995-4.2,2.16,2.751,5.351-1.046.538-3.359-6.532Z" transform="translate(1472.879 -1144.857)" fill="#054b81"/>
        <path id="Trazado_1017" data-name="Trazado 1017" d="M-1131.192,1255.766l2.167,5.2-1.095.456-2.673-6.419,11.855-4.937.507,1.217Z" transform="translate(1475.504 -1139.042)" fill="#054b81"/>
        <path id="Trazado_1018" data-name="Trazado 1018" d="M-1128.144,1265.452l2.8-2.149-1.781-5.081-3.533.072-.46-1.315,13.523-.228.614,1.753-10.705,8.263Zm2.225-7.27,1.543,4.4,6-4.582Z" transform="translate(1476.786 -1133.942)" fill="#054b81"/>
        <path id="Trazado_1019" data-name="Trazado 1019" d="M-1123.336,1267.232l-4.547,1.164-.326-1.275,12.435-3.184.985,3.847c.522,2.04-.231,4.179-2.509,4.762l-.864.22c-2.3.589-3.993-.924-4.517-2.962Zm6.795-1.741-5.7,1.462.635,2.479a2.5,2.5,0,0,0,3.214,2.044l.67-.171a2.489,2.489,0,0,0,1.819-3.332Z" transform="translate(1479.001 -1128.46)" fill="#054b81"/>
        <path id="Trazado_1020" data-name="Trazado 1020" d="M-1113.425,1274.046c.4,2.067-.473,4.158-2.763,4.6l-.754.146a3.421,3.421,0,0,1-3.9-2.094l-4.443,3.649-.28-1.453,4.311-3.48-.5-2.588-4.8.929-.252-1.294,12.608-2.438Zm-1.636-2.514-5.6,1.081.508,2.636a2.484,2.484,0,0,0,3.061,2.239l.55-.106a2.476,2.476,0,0,0,1.987-3.216Z" transform="translate(1480.067 -1123.816)" fill="#054b81"/>
        <path id="Trazado_1021" data-name="Trazado 1021" d="M-1112.4,1280.379c.314,2.467-.862,4.711-3.535,5.055l-4.9.626c-2.673.34-4.376-1.536-4.692-4s.859-4.721,3.533-5.063l4.895-.626C-1114.423,1276.026-1112.718,1277.9-1112.4,1280.379Zm-9.317-2.089a2.937,2.937,0,0,0-2.649,3.62,2.94,2.94,0,0,0,3.474,2.836l4.688-.6a2.939,2.939,0,0,0,2.647-3.619,2.935,2.935,0,0,0-3.472-2.837Z" transform="translate(1481.012 -1119.004)" fill="#054b81"/>
        <path id="Trazado_1022" data-name="Trazado 1022" d="M-1112.148,1283.2l.245,3.93c.153,2.463-1.289,4.635-3.734,4.788l-4.792.3c-2.691.169-4.147-1.823-4.3-4.286l-.245-3.932Zm-.889,3.9-.157-2.511-10.571.66.157,2.51c.131,2.084,1.317,3.265,3.2,3.147l4.584-.286C-1114.079,1290.512-1112.907,1289.183-1113.037,1287.1Z" transform="translate(1481.471 -1113.758)" fill="#054b81"/>
        <path id="Trazado_1023" data-name="Trazado 1023" d="M-1111.739,1298.7l-9.055-.032c-2.445-.009-3.965-1.873-3.956-4.415s1.541-4.394,3.988-4.383l9.055.03-.007,1.317-9.035-.03a2.8,2.8,0,0,0-2.835,3.071,2.794,2.794,0,0,0,2.816,3.082l9.034.03Z" transform="translate(1481.641 -1108.673)" fill="#054b81"/>
        <path id="Trazado_1024" data-name="Trazado 1024" d="M-1124.574,1303.784a8.069,8.069,0,0,1-.395-3.221,4.2,4.2,0,0,1,4.429-4.15l4.783.3a4.191,4.191,0,0,1,3.992,4.7,7.375,7.375,0,0,1-.783,2.9l-1.139-.347a7.615,7.615,0,0,0,.7-2.618,2.987,2.987,0,0,0-2.956-3.327l-4.586-.289a2.967,2.967,0,0,0-3.226,3.057,8.679,8.679,0,0,0,.305,2.844Z" transform="translate(1481.458 -1103.686)" fill="#054b81"/>
        <path id="Trazado_1025" data-name="Trazado 1025" d="M-1125.224,1308.925a8,8,0,0,1-.222-3.235,4.2,4.2,0,0,1,4.641-3.907l4.759.557a4.188,4.188,0,0,1,3.734,4.906,7.393,7.393,0,0,1-.936,2.853l-1.118-.407a7.634,7.634,0,0,0,.835-2.578,2.983,2.983,0,0,0-2.773-3.476l-4.559-.534a2.967,2.967,0,0,0-3.385,2.879,8.65,8.65,0,0,0,.154,2.856Z" transform="translate(1481.058 -1099.604)" fill="#054b81"/>
        <path id="Trazado_1026" data-name="Trazado 1026" d="M-1125.905,1308.31l.207-1.3,12.69,2.01-.206,1.3Z" transform="translate(1480.76 -1095.594)" fill="#054b81"/>
        <path id="Trazado_1027" data-name="Trazado 1027" d="M-1113.758,1316.094c-.5,2.433-2.343,4.175-4.983,3.632l-4.831-1c-2.639-.545-3.641-2.872-3.136-5.307s2.345-4.184,4.984-3.641l4.829,1C-1114.255,1311.321-1113.252,1313.65-1113.758,1316.094Zm-8.131-5a2.932,2.932,0,0,0-3.676,2.563,2.938,2.938,0,0,0,2.363,3.81l4.626.954a2.936,2.936,0,0,0,3.676-2.563,2.934,2.934,0,0,0-2.361-3.81Zm9.949,3.99,2.131,3.327-1.084.657-1.853-3.512Z" transform="translate(1480.051 -1093.555)" fill="#054b81"/>
        <path id="Trazado_1028" data-name="Trazado 1028" d="M-1126.373,1323.912l10.183,2.84-.355,1.271-12.376-3.453.381-1.361,11.874-3.26-10.174-2.839.354-1.269,12.377,3.452-.379,1.363Z" transform="translate(1478.458 -1088.854)" fill="#054b81"/>
        <path id="Trazado_1029" data-name="Trazado 1029" d="M-1128.6,1326.538l-1.985,5.273-1.11-.418,2.451-6.508,12.019,4.526-.464,1.236Z" transform="translate(1476.343 -1081.951)" fill="#054b81"/>
        <path id="Trazado_1030" data-name="Trazado 1030" d="M-1120.78,1338.114c-1.006,2.269-3.175,3.581-5.637,2.489l-4.506-2c-2.463-1.091-2.946-3.577-1.939-5.848s3.177-3.591,5.638-2.5l4.506,2C-1120.255,1333.346-1119.77,1335.834-1120.78,1338.114Zm-6.883-6.608a2.933,2.933,0,0,0-4.135,1.725,2.938,2.938,0,0,0,1.5,4.223l4.318,1.913a2.936,2.936,0,0,0,4.134-1.726,2.931,2.931,0,0,0-1.5-4.221Z" transform="translate(1475.074 -1078.15)" fill="#054b81"/>
        <path id="Trazado_1031" data-name="Trazado 1031" d="M-1136.367,1341.415a8.033,8.033,0,0,1,.933-3.106,4.2,4.2,0,0,1,5.722-2.021l4.258,2.2a4.188,4.188,0,0,1,1.763,5.91,7.363,7.363,0,0,1-1.883,2.339l-.9-.776a7.623,7.623,0,0,0,1.691-2.117,2.983,2.983,0,0,0-1.368-4.232l-4.081-2.11a2.967,2.967,0,0,0-4.182,1.5,8.7,8.7,0,0,0-.865,2.726Z" transform="translate(1472.776 -1073.613)" fill="#054b81"/>
        <path id="Trazado_1032" data-name="Trazado 1032" d="M-1139.11,1347.074l3.45.772,2.758-4.633-2.324-2.664.712-1.2,8.864,10.233-.952,1.6-13.221-2.909Zm7.01-2.963-2.389,4.013,7.373,1.659Z" transform="translate(1470.139 -1070.914)" fill="#054b81"/>
        <path id="Trazado_1033" data-name="Trazado 1033" d="M-1138.526,1347.088l-3.161,4.663-.982-.665,3.9-5.754,10.63,7.205-.739,1.091Z" transform="translate(1467.967 -1066.35)" fill="#054b81"/>
      </g>
      <g id="Grupo_256" data-name="Grupo 256" transform="translate(84.935 323.179)">
        <g id="Grupo_255" data-name="Grupo 255">
          <path id="Trazado_1034" data-name="Trazado 1034" d="M-1272.646,1391.193a9.69,9.69,0,0,1-3.667-1.394,5.081,5.081,0,0,1-1.939-7.079l3.023-4.944a5.067,5.067,0,0,1,7.282-1.613,8.927,8.927,0,0,1,2.659,2.474l-1.016,1.021a9.2,9.2,0,0,0-2.4-2.225,3.613,3.613,0,0,0-5.226,1.284l-2.9,4.739c-1.192,1.948-.5,3.984,1.448,5.176a10.558,10.558,0,0,0,3.212,1.28Z" transform="translate(1279.002 -1366.68)" fill="#054b81"/>
          <path id="Trazado_1035" data-name="Trazado 1035" d="M-1262.638,1380.525c2.669,1.382,4.092,4.1,2.593,6.993l-2.747,5.3c-1.5,2.893-4.538,3.3-7.208,1.911s-4.1-4.1-2.6-7l2.743-5.3C-1268.356,1379.538-1265.318,1379.136-1262.638,1380.525Zm-8.49,7.828c-1.066,2.058-.382,4,1.777,5.122s4.145.557,5.212-1.5l2.629-5.074c1.066-2.058.372-4.007-1.778-5.122s-4.145-.559-5.211,1.5Zm7.91-10.275,4.571-1.391.411,1.479-4.695,1.005Z" transform="translate(1283.421 -1365.602)" fill="#054b81"/>
          <path id="Trazado_1036" data-name="Trazado 1036" d="M-1255.717,1383.081c2.345,1,3.852,3.286,2.747,5.883l-.365.857a4.137,4.137,0,0,1-4.743,2.495l.656,6.925-1.647-.7-.573-6.68-2.935-1.248-2.32,5.446-1.467-.624,6.086-14.295Zm-3.629-.062-2.7,6.347,2.989,1.273c1.826.778,3.522.314,4.318-1.555l.265-.624c.792-1.856-.053-3.389-1.879-4.166Z" transform="translate(1288.645 -1362.205)" fill="#054b81"/>
          <path id="Trazado_1037" data-name="Trazado 1037" d="M-1254.012,1383.929l4.51,1.529c2.824.957,4.594,3.568,3.642,6.373l-1.864,5.5c-1.046,3.087-3.941,3.8-6.767,2.844l-4.51-1.528Zm3.951,2.782-2.879-.976-4.112,12.128,2.881.977c2.391.811,4.256.025,4.989-2.138l1.782-5.26C-1246.722,1389.442-1247.669,1387.521-1250.061,1386.711Z" transform="translate(1294.264 -1360.076)" fill="#054b81"/>
          <path id="Trazado_1038" data-name="Trazado 1038" d="M-1242.66,1386.94c2.916.739,4.92,3.059,4.118,6.218l-1.465,5.785c-.8,3.158-3.669,4.243-6.585,3.5s-4.929-3.06-4.129-6.22l1.467-5.785C-1248.452,1387.283-1245.585,1386.2-1242.66,1386.94Zm-6.483,9.556c-.57,2.248.54,3.984,2.9,4.582s4.163-.4,4.732-2.647l1.4-5.541c.571-2.246-.552-3.988-2.9-4.582s-4.162.4-4.732,2.648Z" transform="translate(1300.446 -1357.949)" fill="#054b81"/>
          <path id="Trazado_1039" data-name="Trazado 1039" d="M-1243.028,1403.39l2.675-15.314,4.852.846c2.861.5,4.039,2.234,3.607,4.709a3.454,3.454,0,0,1-2.911,2.989,3.921,3.921,0,0,1,2.3,4.178l-.016.09c-.474,2.726-2.747,3.856-5.562,3.364Zm5.945-6.479-3.1-.541-1.038,5.948,3.188.557c2.127.372,3.637-.472,3.977-2.417C-1233.719,1398.534-1235,1397.272-1237.083,1396.911Zm3.618-3.495c.3-1.709-.485-2.835-2.419-3.173l-3.131-.547-.943,5.4,3.223.562A2.521,2.521,0,0,0-1233.465,1393.416Z" transform="translate(1306.452 -1356.912)" fill="#054b81"/>
          <path id="Trazado_1040" data-name="Trazado 1040" d="M-1225.542,1405.448l-.924-4.175-6.488-.645-1.728,3.912-1.678-.167,6.666-14.958,2.239.222,3.591,15.978Zm-6.841-6.16,5.621.559-1.962-8.928Z" transform="translate(1311.54 -1355.89)" fill="#054b81"/>
          <path id="Trazado_1041" data-name="Trazado 1041" d="M-1224.771,1395.145l6.515.033-.007,1.308-6.514-.035Z" transform="translate(1320.378 -1351.518)" fill="#054b81"/>
          <path id="Trazado_1042" data-name="Trazado 1042" d="M-1205.794,1404.7l-1.684-3.931-6.493.571-.972,4.164-1.68.15,3.771-15.935,2.243-.2,6.5,15.031Zm-7.865-4.781,5.626-.5-3.586-8.406Z" transform="translate(1326.601 -1355.808)" fill="#054b81"/>
          <path id="Trazado_1043" data-name="Trazado 1043" d="M-1204.171,1388.655c2.514-.411,5.012.714,5.469,3.5l.15.917a4.139,4.139,0,0,1-2.669,4.647l4.261,5.5-1.767.289-4.061-5.335-3.149.515.958,5.844-1.574.257-2.511-15.335Zm-3.1,1.892,1.115,6.807,3.205-.525c1.959-.321,3.141-1.62,2.814-3.625l-.109-.666c-.326-1.994-1.86-2.837-3.819-2.516Z" transform="translate(1332.369 -1356.532)" fill="#054b81"/>
          <path id="Trazado_1044" data-name="Trazado 1044" d="M-1189.816,1401a10.762,10.762,0,0,1-4.085,1.821c-2.957.661-5.8-.594-6.515-3.775l-1.234-5.51c-.74-3.3,1.34-5.675,4.542-6.392a9.989,9.989,0,0,1,4.073-.09l-.065,1.391a10.751,10.751,0,0,0-3.562.116c-2.631.589-3.939,2.364-3.4,4.75l1.181,5.275c.536,2.384,2.387,3.3,4.85,2.747a9.126,9.126,0,0,0,2.516-.952l-1.246-5.565,1.49-.334Z" transform="translate(1337.912 -1357.82)" fill="#054b81"/>
          <path id="Trazado_1045" data-name="Trazado 1045" d="M-1195.336,1387.279l8.246-2.549.422,1.359-6.712,2.075,1.642,5.307,6.491-2.008.42,1.359-6.492,2.008,1.689,5.46,6.951-2.149.422,1.359-8.488,2.625Z" transform="translate(1342.844 -1359.465)" fill="#054b81"/>
          <path id="Trazado_1046" data-name="Trazado 1046" d="M-1175.907,1394.48l-4.663-11.9,1.484-.58,5.668,14.459-1.592.624-11.781-9.1,4.659,11.886-1.484.582-5.668-14.458,1.59-.625Z" transform="translate(1347.462 -1361.545)" fill="#054b81"/>
          <path id="Trazado_1047" data-name="Trazado 1047" d="M-1177.681,1382.869l-4.2,2.023-.617-1.284,9.833-4.734.618,1.28-4.188,2.019,6.124,12.717-1.447.7Z" transform="translate(1352.642 -1363.933)" fill="#054b81"/>
          <path id="Trazado_1048" data-name="Trazado 1048" d="M-1167.076,1391.5l-1.4.762-7.414-13.654,1.4-.761Z" transform="translate(1357.681 -1364.717)" fill="#054b81"/>
          <path id="Trazado_1049" data-name="Trazado 1049" d="M-1158.53,1385.268l-6.749-10.854,1.354-.841,8.2,13.191-1.449.9-13.243-6.8,6.742,10.845-1.354.841-8.2-13.191,1.451-.9Z" transform="translate(1359.713 -1367.979)" fill="#054b81"/>
          <path id="Trazado_1050" data-name="Trazado 1050" d="M-1150.734,1380.821l-3.487-2.472-5.236,3.879,1.347,4.055-1.354,1-5.105-15.548,1.807-1.338,13.385,9.418Zm-9.2.031,4.536-3.36-7.445-5.293Z" transform="translate(1366.32 -1370.4)" fill="#054b81"/>
        </g>
      </g>
    </g>
  </g>
</svg>
